<?xml version="1.0" standalone="no"?>
<!DOCTYPE svg PUBLIC "-//W3C//DTD SVG 1.1//EN" "http://www.w3.org/Graphics/SVG/1.1/DTD/svg11.dtd" >
<svg xmlns="http://www.w3.org/2000/svg">
<metadata>Generated by IcoMoon</metadata>
<defs>
<font id="icomoon" horiz-adv-x="1024">
<font-face units-per-em="1024" ascent="960" descent="-64" />
<missing-glyph horiz-adv-x="1024" />
<glyph unicode="&#x20;" horiz-adv-x="512" d="" />
<glyph unicode="&#xe900;" glyph-name="facebook" d="M416.256 53.504v340.992h-88.064c0 0-0.001 0-0.002 0-11.504 0-20.846 9.253-20.99 20.722v109.582c0 0 0 0.001 0 0.002 0 11.504 9.253 20.846 20.722 20.99h88.59v107.008c0 123.136 75.264 190.208 185.088 190.208h89.6c0.076 0.001 0.166 0.002 0.256 0.002 11.452 0 20.736-9.284 20.736-20.736 0-0.001 0-0.001 0-0.002v0-92.672c0-11.594-9.398-20.992-20.992-20.992v0h-55.040c-59.648 0-71.168-28.416-71.168-70.144v-91.904h131.328c11.538-0.073 20.863-9.443 20.863-20.992 0-0.812-0.046-1.613-0.136-2.401l0.009 0.096-13.056-110.080c-1.433-10.296-10.163-18.142-20.732-18.176h-117.764v-340.992z" />
<glyph unicode="&#xe901;" glyph-name="kreis-ic" d="M512-51.2c-275.2 0-499.2 224-499.2 499.2h51.2c0-247.040 200.96-448 448-448s448 200.96 448 448-200.96 448-448 448v51.2c275.2 0 499.2-224 499.2-499.2s-224-499.2-499.2-499.2z" />
<glyph unicode="&#xe902;" glyph-name="twitter" d="M939.264 729.6c1.147 0.498 2.484 0.788 3.888 0.788 5.514 0 9.984-4.47 9.984-9.984 0-2.004-0.591-3.871-1.607-5.435l0.024 0.039c-21.873-31.827-47.246-59.153-76.066-82.372l-0.734-0.572c-7.511-5.911-12.29-15.002-12.29-25.21 0-0.137 0.001-0.274 0.003-0.411v0.021-2.816c-0.437-66.238-12.889-129.44-35.28-187.712l1.232 3.648c-24.536-64.911-58.601-120.791-101.121-169.041l0.513 0.593c-44.957-51.062-99.545-92.465-161.078-121.595l-3.018-1.285c-64.51-30.083-140.052-47.636-219.695-47.636-1.604 0-3.206 0.007-4.806 0.021l0.245-0.002c-96.277 0.382-186.31 26.769-263.541 72.495l2.421-1.327c-4.567 2.655-7.588 7.525-7.588 13.101 0 1.256 0.153 2.476 0.442 3.642l-0.022-0.104c1.648 6.233 7.237 10.753 13.881 10.753 0.070 0 0.14-0.001 0.209-0.001h22.005c0.176 0 0.384 0 0.592 0 73.217 0 141.206 22.387 197.494 60.689l-1.222-0.785c-71.242 12.065-128.329 62.242-150.143 128.444l-0.385 1.348c-0.32 0.922-0.504 1.985-0.504 3.091 0 5.373 4.355 9.728 9.728 9.728 0.815 0 1.607-0.1 2.363-0.289l-0.067 0.014c9.599-1.753 20.666-2.776 31.964-2.816h4.132c-66.4 30.796-111.625 96.889-111.625 173.546 0 0.638 0.003 1.275 0.009 1.912l-0.001-0.097c0.009 5.508 4.475 9.969 9.984 9.969 1.786 0 3.463-0.469 4.914-1.291l-0.050 0.026c12.535-7.167 27.046-12.974 42.382-16.665l1.138-0.231c-34.879 34.495-56.479 82.356-56.479 135.261 0 35.030 9.47 67.849 25.989 96.035l-0.486-0.897c1.828 2.599 4.814 4.277 8.192 4.277s6.364-1.678 8.171-4.245l0.021-0.032c83.143-101.182 204.054-168.692 340.882-180.856l1.902-0.136c0.060-0.002 0.13-0.003 0.2-0.003 1.973 0 3.738 0.893 4.912 2.297l0.008 0.010c1.257 1.024 2.167 2.433 2.55 4.046l0.010 0.050c-0.744 6.554-1.169 14.15-1.169 21.846 0 17.143 2.106 33.794 6.074 49.708l-0.298-1.41c15.033 64.131 62.021 114.596 122.856 134.291l1.304 0.365c18.060 5.813 38.838 9.18 60.398 9.216h0.018c48.38-0.099 92.48-18.343 125.874-48.285l-0.178 0.157c4.382-3.765 10.107-6.079 16.37-6.144h0.014c0.884-0.119 1.906-0.187 2.944-0.187s2.060 0.068 3.062 0.199l-0.118-0.013c35.249 9.13 66.18 22.286 94.536 39.294l-1.608-0.894c1.443 0.858 3.182 1.365 5.039 1.365 5.514 0 9.984-4.47 9.984-9.984 0-1.035-0.157-2.033-0.45-2.971l0.019 0.071c-10.566-31.623-28.189-58.491-51.082-79.764l-0.118-0.108c23.893 5.911 44.529 13.188 64.22 22.175l-2.268-0.927z" />
<glyph unicode="&#xe903;" glyph-name="time-pub" d="M0 934.4h844.8v-153.6h-844.8v153.6zM0 115.2h612.864v-153.6h-612.864v153.6zM0 524.8h1024v-153.6h-1024v153.6z" />
<glyph unicode="&#xe904;" glyph-name="sechseck" d="M70.4 702.976l441.6 254.976 441.6-254.976v-509.952l-441.6-254.976-441.6 254.976z" />
<glyph unicode="&#xe905;" glyph-name="sechseck-outline" d="M512-65.024l-442.368 255.232v510.72l442.368 255.488 442.368-255.232v-510.72l-442.368-255.488zM146.432 234.496l365.568-210.944 365.568 210.944v422.144l-365.568 210.944-365.568-210.944v-422.144z" />
<glyph unicode="&#xe906;" glyph-name="arrow-right" d="M536.576 76.8l371.2 371.2-371.2 370.944 58.368 58.112 429.056-429.056-429.056-429.312zM0 488.96h565.76v-82.176h-565.76v82.176z" />
<glyph unicode="&#xe907;" glyph-name="Captain" d="M528.384 478.72v26.624c0 26.624-12.288 40.96-34.816 40.96-36.864 0-40.96-36.864-40.96-51.2v-96.256c0-16.384 4.096-51.2 40.96-51.2 24.576 0 34.816 14.336 34.816 40.96v26.624h83.968v-28.672c0-69.632-45.056-112.64-118.784-112.64-77.824 0-126.976 49.152-126.976 129.024v94.208c0 77.824 49.152 129.024 126.976 129.024 75.776 0 116.736-40.96 116.736-112.64v-28.672h-81.92zM987.136 763.392h-950.272v-630.784h950.272v630.784zM108.544 691.712h806.912v-487.424h-806.912v487.424z" />
<glyph unicode="&#xe908;" glyph-name="arrow-down" d="M140.8 423.424l371.2-371.2 370.944 371.2 58.112-58.368-429.056-429.056-429.056 429.056zM471.040 960h82.176v-565.76h-82.176v565.76z" />
<glyph unicode="&#xe909;" glyph-name="arrow-up" d="M883.2 472.576l-371.2 371.2-370.944-371.2-58.112 58.368 429.056 429.056 429.056-429.056zM471.040 501.76h82.176v-565.76h-82.176v565.76z" />
<glyph unicode="&#xe90a;" glyph-name="video-ic" d="M512-4.608c-151.552 0-299.008 75.776-382.976 212.992-131.072 210.944-67.584 489.472 143.36 622.592 141.312 88.064 313.344 96.256 452.608 22.528l-24.576-45.056c-122.88 65.536-276.48 57.344-401.408-20.48-186.368-116.736-243.712-364.544-126.976-552.96 116.736-186.368 364.544-243.712 552.96-126.976 151.552 94.208 215.040 233.472 180.224 389.12l49.152 10.24c38.912-178.176-32.768-335.872-202.752-442.368-75.776-49.152-157.696-69.632-239.616-69.632zM718.848 427.52c0 0 36.864 20.48 0 40.96l-284.672 163.84c0 0-36.864 20.48-36.864-20.48v-327.68c0 0 0-40.96 36.864-20.48l284.672 163.84z" />
<glyph unicode="&#xe90b;" glyph-name="Foto" d="M512 597.504c-116.736 0-210.944-94.208-210.944-210.944s94.208-210.944 210.944-210.944 210.944 94.208 210.944 210.944c0 116.736-94.208 210.944-210.944 210.944zM512 228.864c-88.064 0-159.744 71.68-159.744 159.744s71.68 159.744 159.744 159.744c88.064 0 159.744-71.68 159.744-159.744s-71.68-159.744-159.744-159.744zM557.056 503.296c0-14.336-12.288-26.624-26.624-26.624-57.344 0-104.448-47.104-104.448-104.448 0-14.336-12.288-26.624-26.624-26.624s-26.624 12.288-26.624 26.624c0 86.016 69.632 155.648 155.648 155.648 16.384 0 28.672-12.288 28.672-24.576zM886.784 726.528h-169.984l-18.432 61.44c-6.144 20.48-30.72 57.344-77.824 57.344h-229.376c-16.384 0-51.2-10.24-59.392-47.104l-20.48-73.728h-174.080c-34.816 0-83.968-22.528-83.968-83.968v-591.872h917.504v591.872c0 34.816-22.528 86.016-83.968 86.016zM919.552 101.888h-815.104v538.624c0 28.672 24.576 32.768 32.768 32.768h192.512c14.336 0 26.624 12.288 26.624 26.624 0 0 0 0 0 0l22.528 86.016c2.048 6.144 8.192 8.192 10.24 8.192h229.376c20.48 0 28.672-18.432 28.672-22.528l24.576-79.872c2.048-10.24 12.288-20.48 24.576-20.48h188.416c28.672 0 32.768-24.576 32.768-32.768v-536.576z" />
<glyph unicode="&#xe90c;" glyph-name="kommentar-ic" d="M825.344-0.512l-206.848 245.76h-542.72v536.576c0 83.968 67.584 114.688 114.688 114.688h645.12c83.968 0 114.688-67.584 114.688-114.688v-536.576h-120.832l-4.096-245.76zM126.976 296.448h516.096l133.12-157.696 2.048 157.696h120.832v485.376c0 10.24-4.096 63.488-63.488 63.488h-645.12c-10.24 0-63.488-4.096-63.488-63.488v-485.376z" />
<glyph unicode="&#xe90d;" glyph-name="Gelb" d="M831.488-15.616v798.976c0 0 0 121.6-121.6 121.6h-395.776c0 0-121.6 0-121.6-121.6v-798.976h638.976z" />
<glyph unicode="&#xe90e;" glyph-name="zoom-ic" d="M998.4 652.8h-51.2v230.4h-230.4v51.2h281.6zM793.6 166.4h-563.2v563.2h563.2v-563.2zM281.6 217.6h460.8v460.8h-460.8v-460.8zM307.2-38.4h-281.6v281.6h51.2v-230.4h230.4z" />
<glyph unicode="&#xe90f;" glyph-name="Information" d="M876.544 742.912c0 55.296-32.768 159.744-159.744 159.744h-409.6c-55.296 0-159.744-32.768-159.744-159.744v-749.568h731.136v749.568zM196.608 742.912c0 104.448 98.304 108.544 108.544 108.544h411.648c104.448 0 108.544-98.304 108.544-108.544v-700.416h-628.736v700.416zM583.68 165.376c0-14.336-12.288-26.624-26.624-26.624h-75.776c-14.336 0-26.624 12.288-26.624 26.624s12.288 26.624 26.624 26.624h14.336v274.432l-14.336-14.336c-4.096-4.096-12.288-8.192-18.432-8.192s-12.288 2.048-18.432 8.192c-10.24 10.24-10.24 26.624 0 36.864l53.248 53.248c10.24 10.24 26.624 10.24 36.864 0 2.048-2.048 2.048-2.048 2.048-4.096 6.144-4.096 10.24-12.288 10.24-20.48v-325.632h10.24c16.384 0 26.624-12.288 26.624-26.624zM512 613.888c-32.768 0-57.344 26.624-57.344 57.344 0 32.768 26.624 57.344 57.344 57.344 32.768 0 57.344-26.624 57.344-57.344s-24.576-57.344-57.344-57.344z" />
<glyph unicode="&#xe910;" glyph-name="Rechner" d="M452.608 523.776v-81.92h-81.92v81.92h81.92zM575.488 523.776v0-81.92h81.92v81.92h-81.92zM370.688 364.032v0-81.92h81.92v81.92h-81.92zM575.488 364.032v0-81.92h81.92v81.92h-81.92zM370.688 204.288v0-81.92h81.92v81.92h-81.92zM575.488 204.288v0-81.92h81.92v81.92h-81.92zM333.824 722.432v0-81.92h356.352v81.92h-356.352zM876.544 742.912c0 55.296-32.768 159.744-159.744 159.744h-409.6c-55.296 0-159.744-32.768-159.744-159.744v-749.568h731.136v749.568zM196.608 742.912c0 104.448 98.304 108.544 108.544 108.544h411.648c104.448 0 108.544-98.304 108.544-108.544v-700.416h-628.736v700.416z" />
<glyph unicode="&#xe911;" glyph-name="Rot" d="M831.488-15.616v798.976c0 0 0 121.6-121.6 121.6h-395.776c0 0-121.6 0-121.6-121.6v-798.976h638.976z" />
<glyph unicode="&#xe912;" glyph-name="Abonieren" d="M536.576 845.312v81.92h-51.2v-81.92c-229.376-12.288-411.648-204.8-411.648-436.224 0-241.664 196.608-438.272 438.272-438.272s438.272 196.608 438.272 438.272c0 231.424-182.272 423.936-413.696 436.224zM512 19.968c-212.992 0-387.072 174.080-387.072 387.072 0 215.040 174.080 389.12 387.072 389.12s387.072-174.080 387.072-387.072c0-215.040-174.080-389.12-387.072-389.12zM536.576 318.976v-38.912h-51.2v38.912c-38.912 10.24-67.584 47.104-67.584 88.064 0 43.008 28.672 77.824 67.584 88.064v163.84h51.2v-163.84c38.912-10.24 67.584-47.104 67.584-88.064s-28.672-75.776-67.584-88.064zM667.648 853.504l32.768 51.2 157.696-98.304-30.72-49.152c-45.056 43.008-98.304 75.776-159.744 96.256zM180.224 744.96l-34.816 51.2 155.648 102.4 34.816-51.2c-59.392-24.576-112.64-59.392-155.648-102.4z" />
<glyph unicode="&#xe913;" glyph-name="Abpfiff" d="M714.752 40.448h-405.504c-161.792 0-204.8 133.12-204.8 204.8v405.504c0 161.792 133.12 204.8 204.8 204.8h407.552c161.792 0 204.8-133.12 204.8-204.8v-407.552c-2.048-159.744-135.168-202.752-206.848-202.752zM309.248 804.352c-16.384 0-153.6-6.144-153.6-153.6v-407.552c0-16.384 6.144-153.6 153.6-153.6h407.552c16.384 0 153.6 6.144 153.6 153.6v407.552c0 16.384-6.144 153.6-153.6 153.6h-407.552z" />
<glyph unicode="&#xe914;" glyph-name="Anstoss" d="M167.936 38.4h-51.2v815.104h51.2v-815.104zM428.032 58.88l428.032 301.056c34.816 24.576 53.248 53.248 53.248 83.968 0 51.2-47.104 86.016-53.248 90.112l-428.032 301.056c-36.864 24.576-67.584 32.768-92.16 18.432-40.96-20.48-40.96-81.92-40.96-88.064v-638.976c0-45.056 12.288-73.728 38.912-86.016 10.24-4.096 18.432-6.144 28.672-6.144 30.72 0 61.44 20.48 65.536 24.576zM399.36 794.112l428.032-301.056c0 0 30.72-22.528 30.72-47.104 0-14.336-10.24-28.672-30.72-43.008l-428.032-303.104c-12.288-8.192-34.816-18.432-43.008-12.288-4.096 2.048-10.24 14.336-10.24 40.96v636.928c0 14.336 6.144 38.912 14.336 43.008 2.048 0 2.048 0 4.096 0 6.144 2.048 18.432-2.048 34.816-14.336z" />
<glyph unicode="&#xe915;" glyph-name="Anstoss02" d="M167.936 38.4h-51.2v815.104h51.2v-815.104zM428.032 58.88l428.032 301.056c34.816 24.576 53.248 53.248 53.248 83.968 0 51.2-47.104 86.016-53.248 90.112l-428.032 301.056c-36.864 24.576-67.584 32.768-92.16 18.432-40.96-20.48-40.96-81.92-40.96-88.064v-638.976c0-45.056 12.288-73.728 38.912-86.016 10.24-4.096 18.432-6.144 28.672-6.144 30.72 0 61.44 20.48 65.536 24.576zM399.36 794.112l428.032-301.056c0 0 30.72-22.528 30.72-47.104 0-14.336-10.24-28.672-30.72-43.008l-428.032-303.104c-12.288-8.192-34.816-18.432-43.008-12.288-4.096 2.048-10.24 14.336-10.24 40.96v636.928c0 14.336 6.144 38.912 14.336 43.008 2.048 0 2.048 0 4.096 0 6.144 2.048 18.432-2.048 34.816-14.336z" />
<glyph unicode="&#xe916;" glyph-name="Autosport" d="M638.976 259.584h-329.728v51.2h329.728v-51.2zM868.352 347.648c0 57.344-47.104 104.448-104.448 104.448s-104.448-47.104-104.448-104.448 47.104-104.448 104.448-104.448 104.448 45.056 104.448 104.448zM817.152 347.648c0-30.72-24.576-53.248-53.248-53.248-30.72 0-53.248 24.576-53.248 53.248 0 30.72 24.576 53.248 53.248 53.248s53.248-24.576 53.248-53.248zM292.864 347.648c0 57.344-47.104 104.448-104.448 104.448s-106.496-47.104-106.496-104.448 47.104-104.448 104.448-104.448 106.496 45.056 106.496 104.448zM241.664 347.648c0-30.72-24.576-53.248-53.248-53.248s-53.248 24.576-53.248 53.248c0 30.72 24.576 53.248 53.248 53.248s53.248-24.576 53.248-53.248zM940.032 263.68c71.68 6.144 77.824 22.528 75.776 96.256-2.048 98.304-51.2 122.88-57.344 124.928-2.048 0-141.312 55.296-286.72 120.832-135.168 59.392-251.904 51.2-307.2 49.152-8.192 0-14.336 0-18.432-2.048-53.248-2.048-184.32-59.392-196.608-65.536-10.24-6.144-40.96-12.288-61.44-16.384h-49.152l-32.768-126.976 49.152-12.288 22.528 88.064h14.336c10.24 2.048 57.344 10.24 77.824 22.528s137.216 59.392 174.080 59.392c6.144 0 12.288 0 20.48 2.048 55.296 4.096 157.696 10.24 282.624-45.056 147.456-65.536 286.72-120.832 286.72-120.832s24.576-14.336 26.624-77.824c0-14.336 0-32.768 0-40.96-6.144-2.048-18.432-2.048-28.672-4.096-10.24 0-22.528-2.048-36.864-4.096l6.144-51.2c18.432 2.048 28.672 2.048 38.912 4.096zM712.704 482.816c0 0-32.768 20.48-126.976 61.44s-174.080 30.72-200.704 28.672c-28.672 0-110.592-49.152-122.88-55.296l450.56-34.816z" />
<glyph unicode="&#xe917;" glyph-name="Basketball" d="M512 902.656c-251.904 0-454.656-202.752-454.656-454.656s204.8-454.656 454.656-454.656 454.656 204.8 454.656 454.656c0 251.904-202.752 454.656-454.656 454.656zM915.456 448c0-40.96-6.144-81.92-18.432-120.832-40.96-16.384-184.32-65.536-346.112-69.632 4.096 45.056 18.432 83.968 45.056 116.736 65.536 88.064 184.32 104.448 184.32 104.448h2.048c55.296 12.288 96.256 26.624 126.976 43.008 4.096-22.528 6.144-47.104 6.144-73.728zM897.024 572.928c-4.096 0-6.144-2.048-10.24-2.048-24.576-14.336-63.488-26.624-114.688-38.912-16.384-2.048-141.312-22.528-217.088-124.928-32.768-43.008-49.152-92.16-55.296-147.456-28.672 0-55.296 4.096-83.968 8.192 2.048 241.664 34.816 544.768 151.552 579.584 155.648-20.48 282.624-131.072 329.728-274.432zM364.544 220.672c0-63.488 2.048-116.736 4.096-151.552-36.864 14.336-71.68 32.768-102.4 57.344 14.336 43.008 24.576 79.872 30.72 112.64 22.528-6.144 45.056-12.288 67.584-18.432zM485.376 851.456c-98.304-108.544-120.832-374.784-120.832-575.488-20.48 6.144-40.96 12.288-61.44 18.432 2.048 81.92-26.624 135.168-53.248 188.416-4.096 6.144-6.144 12.288-10.24 20.48-30.72 61.44-40.96 153.6-43.008 196.608 67.584 86.016 172.032 143.36 288.768 151.552zM149.504 628.224c6.144-45.056 18.432-100.352 43.008-149.504 4.096-6.144 6.144-14.336 10.24-20.48 22.528-43.008 43.008-83.968 47.104-141.312-51.2 26.624-100.352 63.488-143.36 114.688 0 6.144 0 10.24 0 16.384 2.048 65.536 16.384 124.928 43.008 180.224zM120.832 345.6c38.912-34.816 81.92-63.488 126.976-83.968-4.096-28.672-10.24-59.392-22.528-96.256-49.152 47.104-86.016 110.592-104.448 180.224zM421.888 54.784c-2.048 43.008-4.096 98.304-4.096 157.696 28.672-4.096 55.296-6.144 83.968-8.192 0-14.336 2.048-28.672 4.096-43.008 2.048-55.296 47.104-96.256 49.152-98.304l22.528-14.336c-20.48-4.096-40.96-6.144-63.488-6.144-32.768 2.048-63.488 4.096-92.16 12.288zM641.024 65.024c0 0 0 2.048 0 0l-55.296 38.912c-6.144 6.144-30.72 30.72-30.72 61.44v2.048c-2.048 12.288-2.048 24.576-4.096 36.864 133.12 4.096 253.952 36.864 321.536 59.392-49.152-92.16-131.072-163.84-231.424-198.656z" />
<glyph unicode="&#xe918;" glyph-name="Basketball02" d="M512 906.752c-253.952 0-458.752-204.8-458.752-458.752s206.848-458.752 458.752-458.752 458.752 204.8 458.752 458.752c0 253.952-204.8 458.752-458.752 458.752zM919.552 468.48c-100.352-6.144-192.512-47.104-266.24-108.544l-98.304 98.304 260.096 260.096c61.44-67.584 98.304-153.6 104.448-249.856zM491.52 40.448c-96.256 4.096-182.272 43.008-249.856 102.4l276.48 278.528 96.256-96.256c-69.632-75.776-114.688-174.080-122.88-284.672zM651.264 288.256l137.216-137.216c-65.536-61.44-151.552-100.352-245.76-108.544 8.192 94.208 47.104 180.224 108.544 245.76zM251.904 761.344c63.488 51.2 141.312 86.016 227.328 92.16-6.144-86.016-40.96-163.84-92.16-227.328l-135.168 135.168zM530.432 855.552c96.256-4.096 182.272-40.96 249.856-100.352l-260.096-262.144-98.304 98.304c61.44 71.68 100.352 163.84 108.544 264.192zM215.040 726.528l135.168-135.168c-65.536-61.44-149.504-100.352-243.712-108.544 8.192 92.16 47.104 178.176 108.544 243.712zM104.448 429.568c108.544 8.192 206.848 53.248 280.576 122.88l96.256-96.256-274.432-276.48c-59.392 67.584-98.304 155.648-102.4 249.856zM219.136 165.376l10.24-10.24c-4.096 4.096-6.144 6.144-10.24 10.24zM825.344 187.904l-135.168 135.168c63.488 53.248 141.312 86.016 229.376 92.16-8.192-86.016-40.96-163.84-94.208-227.328z" />
<glyph unicode="&#xe919;" glyph-name="Biathlon" d="M669.696 380.416c-36.864 0-67.584 30.72-67.584 67.584s30.72 67.584 67.584 67.584c36.864 0 67.584-30.72 67.584-67.584s-30.72-67.584-67.584-67.584zM669.696 464.384c-10.24 0-16.384-8.192-16.384-16.384 0-10.24 8.192-16.384 16.384-16.384s16.384 8.192 16.384 16.384c0 10.24-8.192 16.384-16.384 16.384zM512 378.368c38.912 0 69.632 30.72 69.632 69.632s-30.72 69.632-69.632 69.632c-38.912 0-69.632-30.72-69.632-69.632s30.72-69.632 69.632-69.632zM354.304 378.368c38.912 0 69.632 30.72 69.632 69.632s-30.72 69.632-69.632 69.632c-38.912 0-69.632-30.72-69.632-69.632 2.048-38.912 32.768-69.632 69.632-69.632zM198.656 378.368c38.912 0 69.632 30.72 69.632 69.632s-30.72 69.632-69.632 69.632-69.632-30.72-69.632-69.632c0-38.912 30.72-69.632 69.632-69.632zM825.344 380.416c-36.864 0-67.584 30.72-67.584 67.584s30.72 67.584 67.584 67.584c36.864 0 67.584-30.72 67.584-67.584s-30.72-67.584-67.584-67.584zM825.344 464.384c-10.24 0-16.384-8.192-16.384-16.384 0-10.24 8.192-16.384 16.384-16.384s16.384 8.192 16.384 16.384c0 10.24-6.144 16.384-16.384 16.384zM1005.568 251.392h-987.136v303.104c0 65.536 53.248 90.112 90.112 90.112h808.96c65.536 0 90.112-53.248 90.112-90.112v-303.104zM69.632 302.592h886.784v251.904c0 12.288-4.096 38.912-38.912 38.912h-811.008c-12.288 0-38.912-4.096-38.912-38.912v-251.904z" />
<glyph unicode="&#xe91a;" glyph-name="Chancen" d="M755.712 656.896h-495.616v51.2h493.568v-51.2zM905.216 466.432h-645.12v-51.2h645.12v51.2zM602.112 239.104h-342.016v-51.2h342.016v51.2zM169.984 710.144h-51.2v-526.336h51.2v526.336z" />
<glyph unicode="&#xe91b;" glyph-name="Eckball" d="M436.224 110.080c0 10.24 2.048 18.432 2.048 28.672 0 143.36-116.736 262.144-262.144 262.144-6.144 0-12.288 0-18.432 0v409.6h-53.248v-663.552c0-65.536 53.248-88.064 88.064-88.064h700.416v51.2h-456.704zM155.648 146.944v200.704c6.144 0 12.288 0 18.432 0 116.736 0 210.944-94.208 210.944-210.944 0-10.24 0-18.432-2.048-28.672h-190.464c-6.144 2.048-36.864 4.096-36.864 38.912z" />
<glyph unicode="&#xe91c;" glyph-name="Eishockey" d="M1011.712 572.928c0 118.784-215.040 208.896-499.712 208.896s-499.712-90.112-499.712-208.896v0-247.808c0-120.832 215.040-210.944 499.712-210.944s499.712 92.16 499.712 210.944v247.808c0 0 0 0 0 0zM512 730.624c264.192 0 448.512-83.968 448.512-157.696s-184.32-157.696-448.512-157.696c-264.192 0-448.512 83.968-448.512 157.696s184.32 157.696 448.512 157.696zM512 165.376c-264.192 0-448.512 83.968-448.512 159.744v151.552c79.872-67.584 245.76-114.688 448.512-114.688s368.64 45.056 448.512 114.688v-151.552c0-75.776-184.32-159.744-448.512-159.744z" />
<glyph unicode="&#xe91d;" glyph-name="Eishockey02" d="M1011.712 572.928c0 118.784-215.040 208.896-499.712 208.896s-499.712-90.112-499.712-208.896v0-247.808c0-120.832 215.040-210.944 499.712-210.944s499.712 92.16 499.712 210.944v247.808c0 0 0 0 0 0zM512 730.624c264.192 0 448.512-83.968 448.512-157.696s-184.32-157.696-448.512-157.696c-264.192 0-448.512 83.968-448.512 157.696s184.32 157.696 448.512 157.696zM512 165.376c-264.192 0-448.512 83.968-448.512 159.744v151.552c79.872-67.584 245.76-114.688 448.512-114.688s368.64 45.056 448.512 114.688v-151.552c0-75.776-184.32-159.744-448.512-159.744z" />
<glyph unicode="&#xe91e;" glyph-name="Elfmeter01" d="M512 691.712c-163.84 0-296.96-133.12-296.96-296.96s133.12-296.96 296.96-296.96c163.84 0 296.96 133.12 296.96 296.96s-133.12 296.96-296.96 296.96zM585.728 159.232l-18.432 16.384h-108.544l-18.432-16.384c-102.4 30.72-174.080 124.928-174.080 235.52 0 16.384 2.048 30.72 4.096 47.104l40.96 8.192 38.912 71.68-14.336 43.008c45.056 45.056 106.496 75.776 176.128 75.776s131.072-28.672 176.128-73.728l-12.288-45.056 32.768-69.632 45.056-12.288c2.048-14.336 4.096-30.72 4.096-45.056 0-110.592-71.68-204.8-172.032-235.52zM458.752 472.576l-36.864 81.92 90.112 61.44 83.968-55.296-32.768-86.016h-104.448zM421.888 394.752l51.2-90.112-71.68-71.68-90.112 47.104 20.48 94.208 90.112 20.48zM692.224 374.272l16.384-94.208-92.16-47.104-71.68 71.68 59.392 90.112 88.064-20.48zM976.896 138.752h-57.344v575.488c0 14.336-6.144 30.72-30.72 30.72h-753.664c-12.288 0-30.72-4.096-30.72-30.72v-575.488h-57.344v575.488c0 63.488 53.248 88.064 88.064 88.064h755.712c65.536 0 88.064-53.248 88.064-88.064v-575.488z" />
<glyph unicode="&#xe91f;" glyph-name="Elfmeter02" d="M512 691.712c-163.84 0-296.96-133.12-296.96-296.96s133.12-296.96 296.96-296.96c163.84 0 296.96 133.12 296.96 296.96s-133.12 296.96-296.96 296.96zM585.728 159.232l-18.432 16.384h-108.544l-18.432-16.384c-102.4 30.72-174.080 124.928-174.080 235.52 0 16.384 2.048 30.72 4.096 47.104l40.96 8.192 38.912 71.68-14.336 43.008c45.056 45.056 106.496 75.776 176.128 75.776s131.072-28.672 176.128-73.728l-12.288-45.056 32.768-69.632 45.056-12.288c2.048-14.336 4.096-30.72 4.096-45.056 0-110.592-71.68-204.8-172.032-235.52zM458.752 472.576l-36.864 81.92 90.112 61.44 83.968-55.296-32.768-86.016h-104.448zM421.888 394.752l51.2-90.112-71.68-71.68-90.112 47.104 20.48 94.208 90.112 20.48zM692.224 374.272l16.384-94.208-92.16-47.104-71.68 71.68 59.392 90.112 88.064-20.48zM976.896 138.752h-57.344v575.488c0 14.336-6.144 30.72-30.72 30.72h-753.664c-12.288 0-30.72-4.096-30.72-30.72v-575.488h-57.344v575.488c0 63.488 53.248 88.064 88.064 88.064h755.712c65.536 0 88.064-53.248 88.064-88.064v-575.488z" />
<glyph unicode="&#xe920;" glyph-name="Elfmeter03" d="M512 691.712c-163.84 0-296.96-133.12-296.96-296.96s133.12-296.96 296.96-296.96c163.84 0 296.96 133.12 296.96 296.96s-133.12 296.96-296.96 296.96zM585.728 159.232l-18.432 16.384h-108.544l-18.432-16.384c-102.4 30.72-174.080 124.928-174.080 235.52 0 16.384 2.048 30.72 4.096 47.104l40.96 8.192 38.912 71.68-14.336 43.008c45.056 45.056 106.496 75.776 176.128 75.776s131.072-28.672 176.128-73.728l-12.288-45.056 32.768-69.632 45.056-12.288c2.048-14.336 4.096-30.72 4.096-45.056 0-110.592-71.68-204.8-172.032-235.52zM458.752 472.576l-36.864 81.92 90.112 61.44 83.968-55.296-32.768-86.016h-104.448zM421.888 394.752l51.2-90.112-71.68-71.68-90.112 47.104 20.48 94.208 90.112 20.48zM692.224 374.272l16.384-94.208-92.16-47.104-71.68 71.68 59.392 90.112 88.064-20.48zM976.896 138.752h-57.344v575.488c0 14.336-6.144 30.72-30.72 30.72h-753.664c-12.288 0-30.72-4.096-30.72-30.72v-575.488h-57.344v575.488c0 63.488 53.248 88.064 88.064 88.064h755.712c65.536 0 88.064-53.248 88.064-88.064v-575.488z" />
<glyph unicode="&#xe921;" glyph-name="Elfmeter04" d="M512 691.712c-163.84 0-296.96-133.12-296.96-296.96s133.12-296.96 296.96-296.96c163.84 0 296.96 133.12 296.96 296.96s-133.12 296.96-296.96 296.96zM585.728 159.232l-18.432 16.384h-108.544l-18.432-16.384c-102.4 30.72-174.080 124.928-174.080 235.52 0 16.384 2.048 30.72 4.096 47.104l40.96 8.192 38.912 71.68-14.336 43.008c45.056 45.056 106.496 75.776 176.128 75.776s131.072-28.672 176.128-73.728l-12.288-45.056 32.768-69.632 45.056-12.288c2.048-14.336 4.096-30.72 4.096-45.056 0-110.592-71.68-204.8-172.032-235.52zM458.752 472.576l-36.864 81.92 90.112 61.44 83.968-55.296-32.768-86.016h-104.448zM421.888 394.752l51.2-90.112-71.68-71.68-90.112 47.104 20.48 94.208 90.112 20.48zM692.224 374.272l16.384-94.208-92.16-47.104-71.68 71.68 59.392 90.112 88.064-20.48zM976.896 138.752h-57.344v575.488c0 14.336-6.144 30.72-30.72 30.72h-753.664c-12.288 0-30.72-4.096-30.72-30.72v-575.488h-57.344v575.488c0 63.488 53.248 88.064 88.064 88.064h755.712c65.536 0 88.064-53.248 88.064-88.064v-575.488z" />
<glyph unicode="&#xe922;" glyph-name="Facebook" d="M416.256 53.504v340.992h-88.064c0 0-0.001 0-0.002 0-11.504 0-20.846 9.253-20.99 20.722v109.582c0 0 0 0.001 0 0.002 0 11.504 9.253 20.846 20.722 20.99h88.59v107.008c0 123.136 75.264 190.208 185.088 190.208h89.6c0.076 0.001 0.166 0.002 0.256 0.002 11.452 0 20.736-9.284 20.736-20.736 0-0.001 0-0.001 0-0.002v0-92.672c0-11.594-9.398-20.992-20.992-20.992v0h-55.040c-59.648 0-71.168-28.416-71.168-70.144v-91.904h131.328c11.538-0.073 20.863-9.443 20.863-20.992 0-0.812-0.046-1.613-0.136-2.401l0.009 0.096-13.056-110.080c-1.433-10.296-10.163-18.142-20.732-18.176h-117.764v-340.992z" />
<glyph unicode="&#xe923;" glyph-name="Fussball" d="M512 906.752c-251.904 0-458.752-206.848-458.752-458.752s204.8-458.752 458.752-458.752c251.904 0 458.752 204.8 458.752 458.752 0 251.904-206.848 458.752-458.752 458.752zM643.072 62.976l-43.008 36.864h-174.080l-43.008-38.912c-161.792 55.296-278.528 206.848-278.528 387.072 0 24.576 2.048 47.104 6.144 69.632l79.872 16.384 61.44 114.688-26.624 88.064c73.728 73.728 174.080 118.784 286.72 118.784 110.592 0 210.944-45.056 284.672-116.736l-24.576-88.064 53.248-110.592 86.016-24.576c4.096-22.528 6.144-45.056 6.144-67.584 2.048-178.176-114.688-331.776-274.432-385.024zM425.984 570.88l-57.344 129.024 143.36 96.256 133.12-88.064-53.248-137.216h-165.888zM368.64 448l79.872-143.36-112.64-114.688-145.408 75.776 30.72 149.504 147.456 32.768zM800.768 415.232l26.624-149.504-147.456-75.776-114.688 114.688 94.208 143.36 141.312-32.768z" />
<glyph unicode="&#xe924;" glyph-name="Handball" d="M512 904.704c-251.904 0-456.704-204.8-456.704-456.704s204.8-456.704 456.704-456.704 456.704 204.8 456.704 456.704c0 251.904-204.8 456.704-456.704 456.704zM890.88 591.36l-43.008 2.048-94.208 133.12 8.192 26.624 18.432-4.096c49.152-40.96 88.064-94.208 110.592-157.696zM249.856 652.8l38.912-118.784-59.392-135.168-86.016-22.528-32.768 114.688 63.488 147.456 75.776 14.336zM409.6 757.248l102.4-53.248-47.104-114.688-133.12-22.528-34.816 104.448 112.64 86.016zM335.872 513.536l137.216 24.576 98.304-137.216-63.488-135.168-153.6-14.336-79.872 122.88 61.44 139.264zM231.424 345.6l81.92-124.928-22.528-65.536-110.592 69.632-22.528 102.4 73.728 18.432zM583.68 71.168l-153.6-14.336-94.208 67.584 26.624 73.728 159.744 16.384 102.4-77.824-40.96-65.536zM655.36 177.664l-98.304 73.728 59.392 129.024 126.976 10.24 26.624-124.928-53.248-40.96-61.44-47.104zM745.472 439.808l-133.12-10.24-98.304 139.264 51.2 122.88 149.504 4.096 88.064-122.88-57.344-133.12zM692.224 812.544l24.576-34.816-10.24-30.72-157.696-6.144-108.544 55.296 12.288 51.2c18.432 6.144 38.912 6.144 59.392 6.144 65.536 0 126.976-14.336 180.224-40.96zM397.312 837.12l-8.192-32.768-129.024-98.304-69.632-12.288c51.2 67.584 122.88 118.784 206.848 143.36zM638.976 62.976v0l34.816 65.536 75.776 57.344 59.392 43.008 43.008-6.144c-53.248-75.776-126.976-131.072-212.992-159.744zM876.544 269.824l-57.344 8.192-28.672 139.264 53.248 126.976 45.056-2.048 28.672-69.632c0-8.192 2.048-16.384 2.048-22.528-2.048-65.536-16.384-126.976-43.008-180.224z" />
<glyph unicode="&#xe925;" glyph-name="Handball02" d="M512 904.704c-251.904 0-456.704-204.8-456.704-456.704s204.8-456.704 456.704-456.704 456.704 204.8 456.704 456.704c0 251.904-204.8 456.704-456.704 456.704zM890.88 591.36l-43.008 2.048-94.208 133.12 8.192 26.624 18.432-4.096c49.152-40.96 88.064-94.208 110.592-157.696zM249.856 652.8l38.912-118.784-59.392-135.168-86.016-22.528-32.768 114.688 63.488 147.456 75.776 14.336zM409.6 757.248l102.4-53.248-47.104-114.688-133.12-22.528-34.816 104.448 112.64 86.016zM335.872 513.536l137.216 24.576 98.304-137.216-63.488-135.168-153.6-14.336-79.872 122.88 61.44 139.264zM231.424 345.6l81.92-124.928-22.528-65.536-110.592 69.632-22.528 102.4 73.728 18.432zM583.68 71.168l-153.6-14.336-94.208 67.584 26.624 73.728 159.744 16.384 102.4-77.824-40.96-65.536zM655.36 177.664l-98.304 73.728 59.392 129.024 126.976 10.24 26.624-124.928-53.248-40.96-61.44-47.104zM745.472 439.808l-133.12-10.24-98.304 139.264 51.2 122.88 149.504 4.096 88.064-122.88-57.344-133.12zM692.224 812.544l24.576-34.816-10.24-30.72-157.696-6.144-108.544 55.296 12.288 51.2c18.432 6.144 38.912 6.144 59.392 6.144 65.536 0 126.976-14.336 180.224-40.96zM397.312 837.12l-8.192-32.768-129.024-98.304-69.632-12.288c51.2 67.584 122.88 118.784 206.848 143.36zM638.976 62.976v0l34.816 65.536 75.776 57.344 59.392 43.008 43.008-6.144c-53.248-75.776-126.976-131.072-212.992-159.744zM876.544 269.824l-57.344 8.192-28.672 139.264 53.248 126.976 45.056-2.048 28.672-69.632c0-8.192 2.048-16.384 2.048-22.528-2.048-65.536-16.384-126.976-43.008-180.224z" />
<glyph unicode="&#xe926;" glyph-name="Instagram" d="M806.912 679.424c0-32.768-28.672-61.44-61.44-61.44s-63.488 28.672-61.44 63.488c0 32.768 28.672 61.44 61.44 61.44 34.816-2.048 61.44-30.72 61.44-63.488zM917.504 163.328v569.344c0 49.152-32.768 120.832-120.832 120.832h-569.344c-49.152 0-120.832-32.768-120.832-120.832v-567.296c0-49.152 32.768-120.832 120.832-120.832h567.296c51.2-2.048 122.88 30.72 122.88 118.784zM796.672 802.304c65.536 0 69.632-57.344 69.632-69.632v-567.296c0-65.536-57.344-69.632-69.632-69.632h-569.344c-65.536 0-69.632 57.344-69.632 69.632v567.296c0 65.536 57.344 69.632 69.632 69.632h569.344zM702.464 443.904c0 114.688-92.16 206.848-206.848 206.848s-206.848-92.16-206.848-206.848 92.16-206.848 206.848-206.848c112.64-2.048 206.848 92.16 206.848 206.848zM649.216 443.904c0-86.016-69.632-155.648-155.648-155.648s-155.648 69.632-155.648 155.648c0 86.016 69.632 155.648 155.648 155.648s155.648-69.632 155.648-155.648z" />
<glyph unicode="&#xe927;" glyph-name="Kalender" d="M841.728 742.912h-118.784v106.496h-131.072v-106.496h-161.792v106.496h-131.072v-106.496h-116.736c-30.72 0-77.824-22.528-77.824-86.016v-610.304h813.056v610.304c2.048 34.816-18.432 86.016-75.776 86.016zM630.784 808.448h51.2v-94.208h-51.2v94.208zM335.872 808.448h53.248v-94.208h-51.2v94.208zM868.352 97.792h-712.704v452.608h710.656v-452.608z" />
<glyph unicode="&#xe928;" glyph-name="Kommentar" d="M825.344-0.512l-206.848 245.76h-542.72v536.576c0 83.968 67.584 114.688 114.688 114.688h645.12c83.968 0 114.688-67.584 114.688-114.688v-536.576h-120.832l-4.096-245.76zM126.976 296.448h516.096l133.12-157.696 2.048 157.696h120.832v485.376c0 10.24-4.096 63.488-63.488 63.488h-645.12c-10.24 0-63.488-4.096-63.488-63.488v-485.376z" />
<glyph unicode="&#xe929;" glyph-name="Kommentare" d="M825.344-0.512l-206.848 245.76h-542.72v536.576c0 83.968 67.584 114.688 114.688 114.688h645.12c83.968 0 114.688-67.584 114.688-114.688v-536.576h-120.832l-4.096-245.76zM126.976 296.448h516.096l133.12-157.696 2.048 157.696h120.832v485.376c0 10.24-4.096 63.488-63.488 63.488h-645.12c-10.24 0-63.488-4.096-63.488-63.488v-485.376zM288.768 525.824c28.672 0 51.2 22.528 51.2 51.2s-22.528 51.2-51.2 51.2-51.2-22.528-51.2-51.2c0-28.672 22.528-51.2 51.2-51.2zM512 525.824c28.672 0 51.2 22.528 51.2 51.2s-22.528 51.2-51.2 51.2-51.2-22.528-51.2-51.2c0-28.672 22.528-51.2 51.2-51.2zM735.232 525.824c28.672 0 51.2 22.528 51.2 51.2s-22.528 51.2-51.2 51.2c-28.672 0-51.2-22.528-51.2-51.2 2.048-28.672 24.576-51.2 51.2-51.2z" />
<glyph unicode="&#xe92a;" glyph-name="Link" d="M187.136 2.304c-8.448 0-16.64 3.328-23.040 9.728-12.288 12.8-12.032 33.024 0.768 45.312l374.784 361.984c3.84 3.84 12.032 11.52 0 24.832l-381.44 395.264c-12.288 12.544-12.032 33.024 0.768 45.312s33.024 12.032 45.312-0.768l381.952-395.52c22.784-23.552 40.96-73.472-2.048-114.944l-375.040-362.24c-6.144-5.888-14.080-8.96-22.016-8.96zM474.112 11.264l374.784 361.984c23.552 22.784 31.488 51.2 22.272 80.384-6.144 19.456-17.92 32.256-20.224 34.56l-381.952 395.52c-12.288 12.8-32.512 13.056-45.312 0.768s-13.056-32.512-0.768-45.312l381.44-395.008c12.032-13.312 3.84-21.248 0-24.832l-374.528-361.984c-12.8-12.288-13.056-32.512-0.768-45.312 6.4-6.4 14.592-9.728 23.040-9.728 7.936 0 15.872 3.072 22.016 8.96z" />
<glyph unicode="&#xe92b;" glyph-name="Medizincheck" d="M278.528 392.704c-88.064 0-161.792 73.728-161.792 163.84h51.2c0-61.44 49.152-112.64 110.592-112.64s110.592 51.2 110.592 112.64h51.2c0-92.16-71.68-163.84-161.792-163.84zM165.888 753.152c0 51.2 8.192 71.68 12.288 77.824h8.192c4.096-4.096 10.24-6.144 18.432-6.144 18.432 0 32.768 14.336 32.768 32.768s-16.384 30.72-32.768 30.72c-8.192 0-14.336-2.048-20.48-6.144h-14.336c-20.48 0-55.296-16.384-55.296-129.024v-174.080h51.2v174.080zM354.304 824.832c6.144 0 12.288 2.048 18.432 6.144h8.192c4.096-6.144 12.288-24.576 12.288-77.824v-174.080h51.2v174.080c0 110.592-34.816 129.024-55.296 129.024h-14.336c-6.144 4.096-12.288 6.144-20.48 6.144-18.432 0-32.768-14.336-32.768-32.768s14.336-30.72 32.768-30.72zM813.056 609.792c0 36.864-30.72 65.536-65.536 65.536-36.864 0-65.536-30.72-65.536-65.536 0-26.624 16.384-51.2 40.96-61.44-2.048-32.768-2.048-75.776-2.048-133.12-2.048-192.512-96.256-356.352-208.896-356.352-122.88 0-206.848 126.976-206.848 309.248h-51.2c0-212.992 106.496-360.448 258.048-360.448 145.408 0 258.048 178.176 258.048 407.552 0 59.392 0 102.4 2.048 133.12 24.576 10.24 40.96 32.768 40.96 61.44zM749.568 767.488c-88.064 0-157.696-71.68-157.696-157.696 0-65.536 40.96-122.88 98.304-145.408 0 22.528 0 43.008 0 59.392-28.672 18.432-47.104 51.2-47.104 86.016 0 57.344 47.104 104.448 104.448 104.448s104.448-47.104 104.448-104.448c0-36.864-20.48-71.68-51.2-88.064 0-16.384 0-36.864 0-59.392 61.44 22.528 104.448 79.872 104.448 147.456 4.096 86.016-67.584 157.696-155.648 157.696z" />
<glyph unicode="&#xe92c;" glyph-name="News" d="M757.76 757.248h-706.56v51.2h706.56v-51.2zM972.8 462.336h-921.6v-51.2h923.648v51.2zM540.672 138.752h-491.52v-51.2h491.52v51.2z" />
<glyph unicode="&#xe92d;" glyph-name="NFL" d="M677.888 499.2l-61.44-28.672 12.288-24.576c6.144-12.288 0-28.672-12.288-34.816-4.096-2.048-8.192-2.048-10.24-2.048-10.24 0-18.432 6.144-22.528 14.336l-12.288 24.576-61.44-28.672 12.288-28.672c6.144-12.288 0-28.672-12.288-34.816-4.096-2.048-8.192-2.048-10.24-2.048-10.24 0-18.432 6.144-22.528 14.336l-12.288 28.672-51.2-24.576c-4.096-2.048-8.192-2.048-10.24-2.048-10.24 0-18.432 6.144-22.528 14.336-6.144 12.288 0 28.672 12.288 34.816l51.2 24.576-14.336 28.672c-6.144 12.288 0 28.672 12.288 34.816s28.672 0 34.816-12.288l12.288-26.624 61.44 28.672-14.336 30.72c-6.144 12.288 0 28.672 12.288 34.816s28.672 0 34.816-12.288l14.336-30.72 61.44 28.672c12.288 6.144 28.672 0 34.816-12.288 2.048-16.384-2.048-30.72-16.384-36.864zM960.512 667.136c-10.24 6.144-253.952 137.216-507.904 40.96-178.176-65.536-315.392-227.328-405.504-475.136l8.192-4.096-4.096-8.192c122.88-45.056 237.568-67.584 339.968-67.584 106.496 0 202.752 24.576 284.672 71.68 237.568 133.12 292.864 405.504 294.912 415.744l4.096 18.432-14.336 8.192zM204.8 437.76l106.496-229.376c-63.488 6.144-131.072 22.528-200.704 45.056 26.624 69.632 59.392 131.072 94.208 184.32zM653.312 267.776c-81.92-47.104-176.128-67.584-282.624-63.488l-131.072 280.576c65.536 83.968 143.36 143.36 231.424 176.128 73.728 26.624 147.456 34.816 212.992 30.72l131.072-280.576c-40.96-53.248-94.208-104.448-161.792-143.36zM845.824 460.288l-104.448 223.232c81.92-12.288 147.456-38.912 176.128-53.248-8.192-30.72-28.672-98.304-71.68-169.984z" />
<glyph unicode="&#xe92e;" glyph-name="NFL02" d="M677.888 499.2l-61.44-28.672 12.288-24.576c6.144-12.288 0-28.672-12.288-34.816-4.096-2.048-8.192-2.048-10.24-2.048-10.24 0-18.432 6.144-22.528 14.336l-12.288 24.576-61.44-28.672 12.288-28.672c6.144-12.288 0-28.672-12.288-34.816-4.096-2.048-8.192-2.048-10.24-2.048-10.24 0-18.432 6.144-22.528 14.336l-12.288 28.672-51.2-24.576c-4.096-2.048-8.192-2.048-10.24-2.048-10.24 0-18.432 6.144-22.528 14.336-6.144 12.288 0 28.672 12.288 34.816l51.2 24.576-14.336 28.672c-6.144 12.288 0 28.672 12.288 34.816s28.672 0 34.816-12.288l12.288-26.624 61.44 28.672-14.336 30.72c-6.144 12.288 0 28.672 12.288 34.816s28.672 0 34.816-12.288l14.336-30.72 61.44 28.672c12.288 6.144 28.672 0 34.816-12.288 2.048-16.384-2.048-30.72-16.384-36.864zM960.512 667.136c-10.24 6.144-253.952 137.216-507.904 40.96-178.176-65.536-315.392-227.328-405.504-475.136l8.192-4.096-4.096-8.192c122.88-45.056 237.568-67.584 339.968-67.584 106.496 0 202.752 24.576 284.672 71.68 237.568 133.12 292.864 405.504 294.912 415.744l4.096 18.432-14.336 8.192zM204.8 437.76l106.496-229.376c-63.488 6.144-131.072 22.528-200.704 45.056 26.624 69.632 59.392 131.072 94.208 184.32zM653.312 267.776c-81.92-47.104-176.128-67.584-282.624-63.488l-131.072 280.576c65.536 83.968 143.36 143.36 231.424 176.128 73.728 26.624 147.456 34.816 212.992 30.72l131.072-280.576c-40.96-53.248-94.208-104.448-161.792-143.36zM845.824 460.288l-104.448 223.232c81.92-12.288 147.456-38.912 176.128-53.248-8.192-30.72-28.672-98.304-71.68-169.984z" />
<glyph unicode="&#xe92f;" glyph-name="Pause" d="M512-4.608c-151.552 0-299.008 75.776-382.976 212.992-131.072 210.944-67.584 489.472 143.36 622.592 141.312 88.064 313.344 96.256 452.608 22.528l-24.576-45.056c-122.88 65.536-276.48 57.344-401.408-20.48-186.368-118.784-243.712-366.592-126.976-555.008 116.736-186.368 364.544-243.712 550.912-126.976 151.552 94.208 215.040 233.472 180.224 389.12l49.152 10.24c38.912-178.176-32.768-335.872-202.752-442.368-73.728-47.104-155.648-67.584-237.568-67.584zM432.128 636.416h-51.2v-372.736h51.2v372.736zM645.12 636.416h-51.2v-372.736h51.2v372.736z" />
<glyph unicode="&#xe930;" glyph-name="Pfeil01" d="M960.512 407.040l-204.8-204.8-65.536 65.536 137.216 137.216h-739.328v92.16h755.712l-135.168 135.168 65.536 65.536 188.416-188.416c30.72-34.816 22.528-77.824-2.048-102.4z" />
<glyph unicode="&#xe931;" glyph-name="Pfeil02" d="M86.016 507.392l188.416 188.416 65.536-65.536-135.168-135.168h755.712v-92.16h-739.328l137.216-137.216-65.536-65.536-204.8 204.8c-26.624 26.624-34.816 69.632-2.048 102.4z" />
<glyph unicode="&#xe932;" glyph-name="Pfeil03" d="M440.32 59.904c-6.656 0-13.056 2.56-18.176 7.424l-345.856 346.368c-19.712 19.712-36.096 62.208 0 98.304l327.936 327.936c9.984 9.984 26.112 9.984 36.096 0s9.984-26.112 0-36.096l-327.936-327.936c-11.264-11.264-4.864-21.248 0-26.112l346.112-346.112c9.984-9.984 9.984-26.112 0-36.096-4.864-5.12-11.52-7.68-18.176-7.68zM970.24 453.632c0 14.080-11.52 25.6-25.6 25.6h-644.096c-14.080 0-25.6-11.52-25.6-25.6s11.52-25.6 25.6-25.6h644.096c14.080 0 25.6 11.52 25.6 25.6z" />
<glyph unicode="&#xe933;" glyph-name="Pfeil04" d="M566.528 67.328c-9.984 9.984-9.984 26.112 0 36.096l346.112 346.112c4.864 4.864 11.264 14.592 0 26.112l-327.936 328.192c-9.984 9.984-9.984 26.112 0 36.096s26.112 9.984 36.096 0l328.192-327.936c36.096-36.096 19.712-78.592 0-98.304l-346.112-346.368c-5.12-5.12-11.52-7.424-18.176-7.424s-13.056 2.56-18.176 7.424zM80.384 428.032h644.096c14.080 0 25.6 11.52 25.6 25.6s-11.52 25.6-25.6 25.6h-644.096c-14.080 0-25.6-11.52-25.6-25.6s11.52-25.6 25.6-25.6z" />
<glyph unicode="&#xe934;" glyph-name="Play" d="M509.952-6.656c-151.552 0-299.008 75.776-382.976 212.992-131.072 210.944-67.584 489.472 143.36 622.592 141.312 88.064 313.344 96.256 452.608 22.528l-24.576-45.056c-122.88 65.536-276.48 57.344-401.408-20.48-186.368-116.736-243.712-364.544-126.976-552.96 116.736-186.368 364.544-243.712 552.96-126.976 151.552 94.208 215.040 233.472 180.224 389.12l49.152 10.24c38.912-178.176-32.768-335.872-202.752-442.368-75.776-47.104-157.696-69.632-239.616-69.632zM716.8 425.472c0 0 36.864 20.48 0 40.96l-284.672 163.84c0 0-36.864 20.48-36.864-20.48v-329.728c0 0 0-40.96 36.864-20.48l284.672 165.888z" />
<glyph unicode="&#xe935;" glyph-name="Radsport" d="M720.896 527.872c-26.624 0-53.248-4.096-77.824-12.288l-110.592 235.52h-481.28v-51.2h411.648l-235.52-227.328 34.816-36.864 249.856 239.616 83.968-182.272c-73.728-43.008-124.928-124.928-124.928-217.088 0-137.216 112.64-249.856 249.856-249.856s249.856 112.64 249.856 249.856c2.048 139.264-110.592 251.904-249.856 251.904zM720.896 77.312c-110.592 0-198.656 90.112-198.656 198.656 0 71.68 38.912 135.168 96.256 169.984l83.968-180.224 47.104 22.528-86.016 180.224c18.432 6.144 36.864 8.192 57.344 8.192 110.592 0 198.656-90.112 198.656-198.656s-88.064-200.704-198.656-200.704zM503.808 808.448l-10.24 49.152c34.816 8.192 149.504 28.672 186.368-22.528 16.384-24.576 14.336-55.296-10.24-92.16-8.192-14.336-16.384-24.576-20.48-32.768-6.144-8.192-8.192-12.288-10.24-16.384l-40.96 28.672c2.048 2.048 4.096 6.144 10.24 14.336 4.096 8.192 12.288 18.432 20.48 32.768 14.336 22.528 14.336 32.768 12.288 34.816-14.336 18.432-83.968 16.384-137.216 4.096z" />
<glyph unicode="&#xe936;" glyph-name="Schiedsrichter" d="M364.544 36.352c-32.768 0-67.584 6.144-100.352 20.48-79.872 28.672-124.928 90.112-126.976 94.208-96.256 116.736-61.44 296.96 30.72 385.024 32.768 30.72 73.728 49.152 118.784 69.632 10.24 4.096 20.48 8.192 30.72 14.336 4.096 2.048 8.192 4.096 12.288 6.144 16.384 8.192 34.816 18.432 55.296 16.384 22.528-2.048 32.768-16.384 38.912-24.576 2.048-2.048 4.096-6.144 6.144-6.144 10.24-8.192 12.288-24.576 2.048-36.864-8.192-10.24-24.576-12.288-36.864-2.048-6.144 6.144-10.24 12.288-14.336 16.384-2.048 2.048-2.048 4.096-4.096 4.096-4.096 0-16.384-8.192-22.528-12.288-4.096-2.048-10.24-6.144-14.336-8.192-10.24-4.096-20.48-10.24-30.72-14.336-40.96-18.432-77.824-34.816-104.448-61.44-75.776-71.68-102.4-221.184-26.624-315.392 2.048-2.048 40.96-53.248 106.496-77.824 94.208-38.912 202.752 0 256 55.296 65.536 69.632 92.16 202.752 30.72 290.816l-16.384 22.528 24.576 14.336c59.392 34.816 112.64 71.68 172.032 110.592 26.624 18.432 53.248 34.816 81.92 53.248 6.144 4.096 14.336 8.192 22.528 12.288 12.288 6.144 38.912 20.48 45.056 28.672-2.048 4.096-6.144 12.288-8.192 16.384s-4.096 6.144-4.096 8.192c-4.096 6.144-6.144 12.288-8.192 18.432s-4.096 12.288-8.192 18.432c-2.048 4.096-4.096 10.24-6.144 14.336-4.096 10.24-12.288 30.72-20.48 36.864-49.152-24.576-81.92-38.912-122.88-57.344-24.576-10.24-51.2-22.528-86.016-38.912-8.192-4.096-16.384-6.144-24.576-10.24-16.384-6.144-40.96-16.384-43.008-24.576-2.048-4.096 0-10.24 2.048-14.336 6.144-12.288 0-28.672-12.288-34.816s-28.672 0-34.816 12.288c-8.192 20.48-10.24 38.912-4.096 55.296 12.288 28.672 45.056 40.96 73.728 53.248 8.192 2.048 14.336 6.144 22.528 10.24 34.816 16.384 61.44 28.672 86.016 38.912 38.912 16.384 71.68 32.768 120.832 57.344 16.384 8.192 30.72 6.144 38.912 2.048 26.624-10.24 38.912-40.96 51.2-65.536 2.048-4.096 4.096-8.192 6.144-12.288 4.096-8.192 6.144-14.336 8.192-20.48s4.096-12.288 8.192-18.432c0-2.048 2.048-4.096 4.096-6.144 6.144-12.288 16.384-28.672 14.336-45.056-4.096-32.768-38.912-51.2-71.68-69.632-8.192-4.096-14.336-8.192-18.432-10.24-26.624-18.432-55.296-34.816-81.92-53.248-49.152-32.768-100.352-65.536-151.552-98.304 57.344-108.544 24.576-256-49.152-333.824-55.296-47.104-135.168-83.968-217.088-83.968zM260.096 304.64c-10.24 69.632 32.768 114.688 83.968 122.88 57.344 8.192 100.352-20.48 114.688-57.344 38.912-94.208-61.44-194.56-153.6-135.168-14.336 10.24-38.912 36.864-45.056 69.632zM348.16 472.576c-45.056-4.096-75.776-24.576-96.256-47.104-16.384-18.432-30.72-40.96-34.816-73.728-20.48-112.64 71.68-190.464 165.888-180.224 67.584 6.144 131.072 61.44 135.168 145.408 2.048 63.488-32.768 110.592-63.488 131.072-28.672 18.432-63.488 30.72-106.496 24.576z" />
<glyph unicode="&#xe937;" glyph-name="Spielstaette" d="M219.136 628.224c-6.144-77.824 20.48-133.12 45.056-182.272 4.096-8.192 8.192-16.384 12.288-24.576 40.96-92.16 86.016-172.032 133.12-256l18.432-34.816c4.096-8.192 10.24-20.48 16.384-32.768 16.384-34.816 45.056-94.208 65.536-96.256 16.384-2.048 28.672 22.528 40.96 45.056l4.096 8.192c12.288 22.528 24.576 43.008 34.816 65.536 55.296 102.4 108.544 196.608 157.696 303.104l8.192 20.48c20.48 43.008 43.008 92.16 47.104 145.408 8.192 108.544-47.104 182.272-79.872 217.088-55.296 57.344-139.264 90.112-221.184 88.064-155.648-6.144-270.336-116.736-282.624-266.24zM483.328 839.168c79.872 8.192 155.648-18.432 206.848-73.728 45.056-49.152 67.584-114.688 61.44-174.080-4.096-43.008-24.576-86.016-40.96-126.976l-4.096-10.24c-36.864-83.968-81.92-165.888-124.928-243.712-18.432-34.816-38.912-69.632-55.296-104.448l-8.192-14.336-10.24 14.336c-47.104 69.632-86.016 147.456-126.976 229.376-6.144 12.288-12.288 24.576-18.432 34.816-14.336 26.624-28.672 55.296-40.96 83.968l-6.144 12.288c-16.384 36.864-36.864 79.872-40.96 120.832-6.144 57.344 12.288 116.736 51.2 163.84 38.912 51.2 98.304 83.968 157.696 88.064zM512 468.48c-71.68 0-131.072 59.392-131.072 131.072s59.392 131.072 131.072 131.072c71.68 0 131.072-59.392 131.072-131.072s-59.392-131.072-131.072-131.072zM512 681.472c-45.056 0-79.872-36.864-79.872-79.872s36.864-79.872 79.872-79.872c45.056 0 79.872 36.864 79.872 79.872s-34.816 79.872-79.872 79.872z" />
<glyph unicode="&#xe938;" glyph-name="Tennis" d="M512 902.656c-251.904 0-454.656-202.752-454.656-454.656s204.8-454.656 454.656-454.656c251.904 0 454.656 204.8 454.656 454.656 0 251.904-202.752 454.656-454.656 454.656zM108.544 448c0 67.584 16.384 129.024 45.056 184.32 6.144-49.152 18.432-110.592 43.008-157.696 4.096-6.144 6.144-14.336 10.24-20.48 38.912-73.728 71.68-137.216 18.432-290.816-71.68 73.728-116.736 174.080-116.736 284.672zM268.288 126.464c69.632 190.464 26.624 272.384-16.384 352.256-4.096 6.144-6.144 12.288-10.24 20.48-34.816 67.584-40.96 174.080-43.008 204.8 73.728 92.16 186.368 149.504 313.344 149.504 176.128 0 323.584-112.64 380.928-268.288-2.048 0-4.096 0-6.144-2.048-24.576-14.336-63.488-26.624-114.688-38.912-14.336-2.048-141.312-22.528-217.088-124.928-49.152-63.488-65.536-147.456-51.2-243.712 2.048-55.296 47.104-96.256 49.152-98.304l36.864-24.576c-24.576-4.096-51.2-8.192-77.824-8.192-92.16 0-176.128 30.72-243.712 81.92zM649.216 69.12c-2.048 4.096-4.096 8.192-8.192 10.24l-55.296 36.864c-6.144 6.144-30.72 30.72-30.72 61.44v2.048c-12.288 83.968 2.048 153.6 40.96 206.848 65.536 88.064 182.272 104.448 184.32 104.448h2.048c55.296 12.288 94.208 26.624 124.928 40.96 6.144-28.672 10.24-57.344 10.24-86.016-2.048-172.032-112.64-321.536-268.288-376.832z" />
<glyph unicode="&#xe939;" glyph-name="Tennis02" d="M512 908.8c-253.952 0-460.8-206.848-460.8-460.8s206.848-460.8 460.8-460.8c253.952 0 460.8 206.848 460.8 460.8s-206.848 460.8-460.8 460.8zM479.232 855.552c-16.384-198.656-174.080-356.352-372.736-372.736 14.336 196.608 174.080 356.352 372.736 372.736zM104.448 429.568c227.328 16.384 409.6 198.656 425.984 425.984 210.944-8.192 378.88-178.176 389.12-387.072-229.376-16.384-411.648-198.656-428.032-428.032-208.896 10.24-378.88 180.224-387.072 389.12zM542.72 40.448c16.384 200.704 176.128 360.448 374.784 374.784-14.336-198.656-174.080-358.4-374.784-374.784z" />
<glyph unicode="&#xe93a;" glyph-name="Transfer" d="M798.72 284.16l-36.864 36.864 157.696 157.696-143.36 143.36 36.864 36.864 149.504-149.504c20.48-20.48 14.336-49.152 0-65.536l-163.84-159.744zM602.112 378.368c-34.816-92.16-83.968-167.936-145.408-225.28-10.24-10.24-26.624-24.576-43.008-36.864-26.624-20.48-36.864-22.528-38.912-22.528 0 0-6.144 2.048-20.48 12.288-6.144 6.144-14.336 12.288-20.48 18.432-4.096 4.096-8.192 8.192-12.288 10.24-73.728 61.44-129.024 137.216-167.936 233.472-36.864 92.16-57.344 204.8-61.44 333.824 32.768 24.576 67.584 43.008 104.448 59.392 43.008 18.432 88.064 30.72 137.216 38.912 12.288 2.048 22.528 2.048 34.816 2.048 20.48 0 34.816-2.048 34.816-2.048 53.248-8.192 100.352-20.48 143.36-38.912 38.912-16.384 75.776-36.864 108.544-59.392 0-47.104-4.096-94.208-8.192-137.216h43.008c6.144 49.152 8.192 98.304 8.192 151.552v12.288l-8.192 6.144c-36.864 28.672-79.872 53.248-126.976 71.68-45.056 18.432-98.304 32.768-153.6 40.96 0 0-16.384 2.048-40.96 2.048-14.336 0-26.624 0-40.96-2.048-51.2-8.192-102.4-22.528-147.456-40.96-43.008-18.432-81.92-40.96-122.88-71.68l-10.24-8.192v-12.288c2.048-141.312 24.576-262.144 65.536-364.544s102.4-186.368 180.224-251.904c4.096-2.048 6.144-6.144 10.24-10.24h2.048c8.192-6.144 14.336-12.288 22.528-18.432 18.432-14.336 32.768-20.48 45.056-20.48v0c16.384 0 34.816 10.24 63.488 30.72 18.432 14.336 34.816 28.672 47.104 38.912 67.584 63.488 120.832 145.408 157.696 243.712 2.048 6.144 4.096 12.288 6.144 18.432h-45.056zM808.96 497.152h-528.384v-51.2h528.384v51.2z" />
<glyph unicode="&#xe93b;" glyph-name="Twitter" d="M939.264 729.6c1.147 0.498 2.484 0.788 3.888 0.788 5.514 0 9.984-4.47 9.984-9.984 0-2.004-0.591-3.871-1.607-5.435l0.024 0.039c-21.873-31.827-47.246-59.153-76.066-82.372l-0.734-0.572c-7.511-5.911-12.29-15.002-12.29-25.21 0-0.137 0.001-0.274 0.003-0.411v0.021-2.816c-0.437-66.238-12.889-129.44-35.28-187.712l1.232 3.648c-24.536-64.911-58.601-120.791-101.121-169.041l0.513 0.593c-44.957-51.062-99.545-92.465-161.078-121.595l-3.018-1.285c-64.51-30.083-140.052-47.636-219.695-47.636-1.604 0-3.206 0.007-4.806 0.021l0.245-0.002c-96.277 0.382-186.31 26.769-263.541 72.495l2.421-1.327c-4.567 2.655-7.588 7.525-7.588 13.101 0 1.256 0.153 2.476 0.442 3.642l-0.022-0.104c1.648 6.233 7.237 10.753 13.881 10.753 0.070 0 0.14-0.001 0.209-0.001h22.005c0.176 0 0.384 0 0.592 0 73.217 0 141.206 22.387 197.494 60.689l-1.222-0.785c-71.242 12.065-128.329 62.242-150.143 128.444l-0.385 1.348c-0.32 0.922-0.504 1.985-0.504 3.091 0 5.373 4.355 9.728 9.728 9.728 0.815 0 1.607-0.1 2.363-0.289l-0.067 0.014c9.599-1.753 20.666-2.776 31.964-2.816h4.132c-66.4 30.796-111.625 96.889-111.625 173.546 0 0.638 0.003 1.275 0.009 1.912l-0.001-0.097c0.009 5.508 4.475 9.969 9.984 9.969 1.786 0 3.463-0.469 4.914-1.291l-0.050 0.026c12.535-7.167 27.046-12.974 42.382-16.665l1.138-0.231c-34.879 34.495-56.479 82.356-56.479 135.261 0 35.030 9.47 67.849 25.989 96.035l-0.486-0.897c1.828 2.599 4.814 4.277 8.192 4.277s6.364-1.678 8.171-4.245l0.021-0.032c83.143-101.182 204.054-168.692 340.882-180.856l1.902-0.136c0.060-0.002 0.13-0.003 0.2-0.003 1.973 0 3.738 0.893 4.912 2.297l0.008 0.010c1.257 1.024 2.167 2.433 2.55 4.046l0.010 0.050c-0.744 6.554-1.169 14.15-1.169 21.846 0 17.143 2.106 33.794 6.074 49.708l-0.298-1.41c15.033 64.131 62.021 114.596 122.856 134.291l1.304 0.365c18.060 5.813 38.838 9.18 60.398 9.216h0.018c48.38-0.099 92.48-18.343 125.874-48.285l-0.178 0.157c4.382-3.765 10.107-6.079 16.37-6.144h0.014c0.884-0.119 1.906-0.187 2.944-0.187s2.060 0.068 3.062 0.199l-0.118-0.013c35.249 9.13 66.18 22.286 94.536 39.294l-1.608-0.894c1.443 0.858 3.182 1.365 5.039 1.365 5.514 0 9.984-4.47 9.984-9.984 0-1.035-0.157-2.033-0.45-2.971l0.019 0.071c-10.566-31.623-28.189-58.491-51.082-79.764l-0.118-0.108c23.893 5.911 44.529 13.188 64.22 22.175l-2.268-0.927z" />
<glyph unicode="&#xe93c;" glyph-name="Umfrage" d="M954.368 456.192c0 45.056-36.864 83.968-81.92 86.016v317.44l-51.2 2.048c0-10.24-18.432-256-509.952-251.904-26.624 0-81.92 4.096-83.968 4.096-88.064 0-157.696-69.632-157.696-155.648s71.68-155.648 159.744-155.648c0 0 0 0 0 0l81.92 4.096v-215.040c0-26.624 18.432-55.296 53.248-55.296h90.112c20.48 0 53.248 14.336 53.248 55.296v198.656c301.056-53.248 313.344-229.376 315.392-237.568h51.2v317.44c45.056 4.096 79.872 40.96 79.872 86.016zM456.704 89.6c0-2.048 0-4.096 0-2.048 0 0-2.048 0-2.048 0h-92.16c0 0-2.048 4.096-2.048 4.096v212.992c34.816 0 65.536-4.096 94.208-6.144v-208.896zM821.248 181.76c-61.44 81.92-198.656 174.080-501.76 174.080-4.096 0-6.144 0-10.24 0l-83.968-4.096c-59.392 0-106.496 47.104-106.496 104.448s47.104 104.448 104.448 104.448c2.048 0 59.392-4.096 86.016-4.096 309.248-2.048 448.512 92.16 509.952 174.080v-548.864z" />
<glyph unicode="&#xe93d;" glyph-name="Userkommentar" d="M256 93.696c-4.096 0-8.192 0-12.288 2.048-36.864 8.192-36.864 51.2-36.864 71.68 0 4.096 0 8.192 0 10.24 0 8.192 0 16.384 0 22.528 0 12.288 0 26.624-2.048 32.768-2.048 2.048-10.24 6.144-14.336 8.192s-6.144 4.096-10.24 6.144c-104.448 69.632-153.6 151.552-145.408 247.808 6.144 81.92 57.344 157.696 145.408 215.040 77.824 51.2 188.416 83.968 303.104 88.064 137.216 6.144 258.048-24.576 360.448-90.112 51.2-32.768 167.936-126.976 141.312-268.288-16.384-92.16-90.112-174.080-198.656-225.28-83.968-38.912-188.416-59.392-290.816-57.344-6.144 0-55.296 4.096-90.112 8.192-22.528-12.288-43.008-22.528-67.584-34.816-4.096-2.048-6.144-4.096-12.288-8.192-16.384-10.24-40.96-28.672-69.632-28.672zM516.096 751.104c-10.24 0-18.432 0-28.672 0-106.496-4.096-206.848-32.768-278.528-79.872-43.008-28.672-116.736-88.064-122.88-176.128-6.144-77.824 32.768-143.36 122.88-202.752 2.048-2.048 4.096-4.096 8.192-4.096 14.336-8.192 26.624-16.384 32.768-30.72 8.192-16.384 8.192-36.864 8.192-55.296 0-6.144 0-14.336 0-20.48 0-4.096 0-10.24 0-14.336 0-6.144 0-14.336 0-20.48 12.288 2.048 30.72 14.336 38.912 20.48 6.144 4.096 12.288 8.192 16.384 10.24 26.624 14.336 49.152 26.624 75.776 38.912l6.144 4.096h8.192c32.768-4.096 88.064-8.192 94.208-8.192 129.024-2.048 223.232 32.768 268.288 53.248 92.16 43.008 155.648 112.64 169.984 186.368 20.48 112.64-75.776 188.416-118.784 217.088-86.016 53.248-186.368 81.92-301.056 81.92z" />
<glyph unicode="&#xe93e;" glyph-name="Userkommentare" d="M337.92 476.672c0-28.672-22.528-51.2-51.2-51.2s-51.2 22.528-51.2 51.2c0 28.672 22.528 51.2 51.2 51.2s51.2-22.528 51.2-51.2zM563.2 476.672c0-28.672-22.528-51.2-51.2-51.2s-51.2 22.528-51.2 51.2c0 28.672 22.528 51.2 51.2 51.2s51.2-22.528 51.2-51.2zM786.432 476.672c0-28.672-22.528-51.2-51.2-51.2s-51.2 22.528-51.2 51.2c0 28.672 22.528 51.2 51.2 51.2s51.2-22.528 51.2-51.2zM256 93.696c-4.096 0-8.192 0-12.288 2.048-36.864 8.192-36.864 51.2-36.864 71.68 0 4.096 0 8.192 0 10.24 0 8.192 0 16.384 0 22.528 0 12.288 0 26.624-2.048 32.768-2.048 2.048-10.24 6.144-14.336 8.192s-6.144 4.096-10.24 6.144c-104.448 69.632-153.6 151.552-145.408 247.808 6.144 81.92 57.344 157.696 145.408 215.040 77.824 51.2 188.416 83.968 303.104 88.064 137.216 6.144 258.048-24.576 360.448-90.112 51.2-32.768 167.936-126.976 141.312-268.288-16.384-92.16-90.112-174.080-198.656-225.28-83.968-38.912-188.416-59.392-290.816-57.344-6.144 0-55.296 4.096-90.112 8.192-22.528-12.288-43.008-22.528-67.584-34.816-4.096-2.048-6.144-4.096-12.288-8.192-16.384-10.24-40.96-28.672-69.632-28.672zM516.096 751.104c-10.24 0-18.432 0-28.672 0-106.496-4.096-206.848-32.768-278.528-79.872-43.008-28.672-116.736-88.064-122.88-176.128-6.144-77.824 32.768-143.36 122.88-202.752 2.048-2.048 4.096-4.096 8.192-4.096 14.336-8.192 26.624-16.384 32.768-30.72 8.192-16.384 8.192-36.864 8.192-55.296 0-6.144 0-14.336 0-20.48 0-4.096 0-10.24 0-14.336 0-6.144 0-14.336 0-20.48 12.288 2.048 30.72 14.336 38.912 20.48 6.144 4.096 12.288 8.192 16.384 10.24 26.624 14.336 49.152 26.624 75.776 38.912l6.144 4.096h8.192c32.768-4.096 88.064-8.192 94.208-8.192 129.024-2.048 223.232 32.768 268.288 53.248 92.16 43.008 155.648 112.64 169.984 186.368 20.48 112.64-75.776 188.416-118.784 217.088-86.016 53.248-186.368 81.92-301.056 81.92z" />
<glyph unicode="&#xe93f;" glyph-name="Vertragsabsage" d="M669.696 632.32h-380.928v49.152h380.928v-49.152zM442.368 42.496h-274.432v727.040c0 79.872 75.776 83.968 83.968 83.968h454.656c79.872 0 83.968-75.776 83.968-83.968v-274.432c16.384 0 32.768-2.048 49.152-6.144v280.576c0 47.104-28.672 133.12-133.12 133.12h-454.656c-47.104 0-133.12-28.672-133.12-133.12v-778.24h344.064c-8.192 16.384-14.336 34.816-20.48 51.2zM905.216 304.64l-36.864 32.768-112.64-129.024-112.64 129.024-38.912-32.768 116.736-133.12-116.736-133.12 36.864-32.768 112.64 129.024 112.64-129.024 36.864 32.768-116.736 133.12 118.784 133.12zM643.072 468.48h-354.304v-49.152h270.336c24.576 20.48 53.248 36.864 83.968 49.152zM444.416 255.488h-155.648v-49.152h143.36c4.096 18.432 8.192 34.816 12.288 49.152z" />
<glyph unicode="&#xe940;" glyph-name="Vertragsbestaetigung" d="M673.792 630.272h-380.928v51.2h380.928v-51.2zM446.464 44.544h-272.384v724.992c0 77.824 69.632 81.92 81.92 81.92h454.656c77.824 0 81.92-69.632 81.92-81.92v-274.432c18.432 0 34.816-2.048 51.2-6.144v280.576c0 47.104-28.672 135.168-135.168 135.168h-452.608c-47.104 0-135.168-28.672-135.168-135.168v-776.192h346.112c-8.192 16.384-14.336 32.768-20.48 51.2zM706.56 44.544l237.568 256-36.864 34.816-221.184-235.52-98.304 104.448-36.864-34.816 139.264-145.408 16.384 20.48zM649.216 470.528h-356.352v-51.2h268.288c26.624 20.48 55.296 36.864 88.064 51.2zM448.512 257.536h-155.648v-51.2h143.36c2.048 18.432 8.192 34.816 12.288 51.2z" />
<glyph unicode="&#xe941;" glyph-name="Vertragsgesgespraech" d="M651.264 632.32h-380.928v49.152h380.928v-49.152zM423.936 42.496h-274.432v727.040c0 79.872 75.776 83.968 83.968 83.968h454.656c79.872 0 83.968-75.776 83.968-83.968v-274.432c16.384 0 32.768-2.048 49.152-6.144v280.576c0 47.104-28.672 133.12-133.12 133.12h-454.656c-47.104 0-133.12-28.672-133.12-133.12v-778.24h344.064c-6.144 16.384-14.336 34.816-20.48 51.2zM624.64 468.48h-354.304v-49.152h270.336c24.576 20.48 53.248 36.864 83.968 49.152zM425.984 255.488h-155.648v-49.152h143.36c4.096 18.432 8.192 34.816 12.288 49.152zM600.064 42.496c-2.048 0-6.144 0-8.192 0-18.432 4.096-26.624 18.432-26.624 45.056 0 2.048 0 2.048 0 4.096 0 4.096 0 6.144 0 10.24 0 2.048 0 4.096 0 4.096-2.048 0-2.048 2.048-4.096 2.048-18.432 12.288-73.728 49.152-67.584 118.784 2.048 38.912 26.624 75.776 67.584 102.4 34.816 22.528 83.968 36.864 135.168 38.912 61.44 2.048 114.688-10.24 159.744-40.96 51.2-32.768 75.776-79.872 65.536-129.024-8.192-43.008-40.96-81.92-92.16-104.448-47.104-22.528-106.496-30.72-163.84-22.528-8.192-4.096-14.336-8.192-22.528-12.288 0 0-2.048-2.048-4.096-2.048-8.192-4.096-22.528-14.336-38.912-14.336zM598.016 93.696v0 0zM708.608 318.976c-4.096 0-8.192 0-12.288 0-40.96-2.048-81.92-12.288-108.544-30.72-16.384-10.24-43.008-32.768-45.056-63.488-2.048-26.624 12.288-49.152 45.056-71.68l2.048-2.048c6.144-4.096 16.384-10.24 20.48-18.432 4.096-10.24 4.096-18.432 4.096-28.672 0 0 2.048 0 2.048 0 12.288 6.144 20.48 12.288 32.768 16.384l8.192 4.096 8.192-2.048c69.632-10.24 122.88 8.192 143.36 18.432 34.816 16.384 57.344 40.96 63.488 67.584 6.144 36.864-24.576 63.488-43.008 75.776-34.816 24.576-75.776 34.816-120.832 34.816z" />
<glyph unicode="&#xe942;" glyph-name="Vertragsverhandlung" d="M665.6 632.32h-380.928v49.152h380.928v-49.152zM438.272 42.496h-274.432v727.040c0 79.872 75.776 83.968 83.968 83.968h454.656c79.872 0 83.968-75.776 83.968-83.968v-274.432c16.384 0 32.768-2.048 49.152-6.144v280.576c0 47.104-28.672 133.12-133.12 133.12h-454.656c-47.104 0-133.12-28.672-133.12-133.12v-778.24h344.064c-8.192 16.384-14.336 34.816-20.48 51.2zM638.976 468.48h-354.304v-49.152h270.336c24.576 20.48 53.248 36.864 83.968 49.152zM440.32 255.488h-155.648v-49.152h143.36c4.096 18.432 8.192 34.816 12.288 49.152zM845.824 404.992l-65.536-61.44 63.488-67.584 65.536 61.44-63.488 67.584zM555.008 134.656l63.488-67.584 208.896 192.512-63.488 67.584-208.896-192.512zM509.952 24.064l88.064 26.624-61.44 69.632-32.768-86.016c-6.144-14.336 6.144-10.24 6.144-10.24z" />
<glyph unicode="&#xe943;" glyph-name="Videobeweis" d="M960.512 671.232v-251.904h-51.2v251.904c0 10.24-4.096 67.584-67.584 67.584h-677.888c-10.24 0-67.584-4.096-67.584-67.584v-512h532.48v-51.2h-583.68v563.2c0 88.064 71.68 118.784 118.784 118.784h677.888c86.016 0 118.784-71.68 118.784-118.784zM970.752 302.592l-36.864 36.864-172.032-172.032-49.152 51.2-34.816-36.864 73.728-75.776h24.576l194.56 196.608z" />
<glyph unicode="&#xe944;" glyph-name="Videobeweis02" d="M968.704 673.28v-251.904h-51.2v251.904c0 10.24-4.096 67.584-67.584 67.584h-675.84c-10.24 0-67.584-4.096-67.584-67.584v-512h532.48v-51.2h-583.68v563.2c0 88.064 71.68 118.784 118.784 118.784h677.888c86.016 0 116.736-71.68 116.736-118.784zM960.512 312.832l-36.864 36.864-81.92-81.92-81.92 81.92-36.864-36.864 81.92-81.92-81.92-81.92 36.864-36.864 81.92 81.92 81.92-81.92 36.864 36.864-81.92 81.92 81.92 81.92z" />
<glyph unicode="&#xe945;" glyph-name="Wechsel01" d="M921.6 667.136v-51.2h-733.184l167.936-167.936-36.864-36.864-202.752 202.752c-18.432 18.432-24.576 49.152 0 71.68l184.32 184.32 36.864-36.864-167.936-167.936h751.616zM720.896 484.864l-36.864-36.864 167.936-167.936h-749.568v-51.2h733.184l-167.936-167.936 36.864-36.864 202.752 202.752c18.432 18.432 24.576 49.152 0 71.68l-186.368 186.368z" />
<glyph unicode="&#xe946;" glyph-name="Wechsel02" d="M921.6 667.136v-51.2h-733.184l167.936-167.936-36.864-36.864-202.752 202.752c-18.432 18.432-24.576 49.152 0 71.68l184.32 184.32 36.864-36.864-167.936-167.936h751.616zM720.896 484.864l-36.864-36.864 167.936-167.936h-749.568v-51.2h733.184l-167.936-167.936 36.864-36.864 202.752 202.752c18.432 18.432 24.576 49.152 0 71.68l-186.368 186.368z" />
<glyph unicode="&#xe947;" glyph-name="Wintersport" d="M946.176 517.632l-137.216 73.728-190.464-108.544c-4.096 16.384-12.288 32.768-24.576 45.056l186.368 108.544-2.048 159.744h51.2l4.096-159.744 135.168-73.728-22.528-45.056zM487.424 562.688c8.192 2.048 16.384 2.048 24.576 2.048s18.432-2.048 26.624-4.096v215.040l137.216 77.824-26.624 45.056-129.024-75.776h-10.24l-133.12 75.776-26.624-45.056 137.216-77.824v-212.992zM538.624 343.552c-8.192-2.048-16.384-4.096-26.624-4.096-8.192 0-16.384 2.048-24.576 2.048v-221.184c0 0 0-2.048 0-2.048l-137.216-77.824 26.624-45.056 139.264 79.872 133.12-77.824 26.624 45.056-137.216 77.824v223.232zM432.128 374.272c-12.288 12.288-20.48 26.624-26.624 43.008l-186.368-108.544-139.264 77.824-24.576-45.056 135.168-73.728 4.096-159.744 51.2 2.048-4.096 153.6 190.464 110.592zM972.8 343.552l-24.576 45.056-143.36-77.824-184.32 106.496c-6.144-16.384-14.336-30.72-26.624-43.008l192.512-110.592-4.096-149.504 51.2-2.048 4.096 151.552c0 0 0 0 0 0 2.048 4.096 2.048 6.144 4.096 10.24l131.072 69.632zM243.712 634.368l186.368-106.496c-12.288-12.288-20.48-28.672-24.576-45.056l-186.368 108.544c0 0 0 0-2.048 2.048l-139.264-75.776-24.576 45.056 135.168 73.728 4.096 159.744 51.2-2.048-4.096-157.696c0-2.048 2.048-2.048 4.096-2.048zM512 513.536c-34.816 0-61.44-28.672-61.44-61.44s28.672-61.44 61.44-61.44 61.44 28.672 61.44 61.44-26.624 61.44-61.44 61.44z" />
<glyph unicode="&#xe948;" glyph-name="Wintersport02" d="M946.176 517.632l-137.216 73.728-190.464-108.544c-4.096 16.384-12.288 32.768-24.576 45.056l186.368 108.544-2.048 159.744h51.2l4.096-159.744 135.168-73.728-22.528-45.056zM487.424 562.688c8.192 2.048 16.384 2.048 24.576 2.048s18.432-2.048 26.624-4.096v215.040l137.216 77.824-26.624 45.056-129.024-75.776h-10.24l-133.12 75.776-26.624-45.056 137.216-77.824v-212.992zM538.624 343.552c-8.192-2.048-16.384-4.096-26.624-4.096-8.192 0-16.384 2.048-24.576 2.048v-221.184c0 0 0-2.048 0-2.048l-137.216-77.824 26.624-45.056 139.264 79.872 133.12-77.824 26.624 45.056-137.216 77.824v223.232zM432.128 374.272c-12.288 12.288-20.48 26.624-26.624 43.008l-186.368-108.544-139.264 77.824-24.576-45.056 135.168-73.728 4.096-159.744 51.2 2.048-4.096 153.6 190.464 110.592zM972.8 343.552l-24.576 45.056-143.36-77.824-184.32 106.496c-6.144-16.384-14.336-30.72-26.624-43.008l192.512-110.592-4.096-149.504 51.2-2.048 4.096 151.552c0 0 0 0 0 0 2.048 4.096 2.048 6.144 4.096 10.24l131.072 69.632zM243.712 634.368l186.368-106.496c-12.288-12.288-20.48-28.672-24.576-45.056l-186.368 108.544c0 0 0 0-2.048 2.048l-139.264-75.776-24.576 45.056 135.168 73.728 4.096 159.744 51.2-2.048-4.096-157.696c0-2.048 2.048-2.048 4.096-2.048zM512 513.536c-34.816 0-61.44-28.672-61.44-61.44s28.672-61.44 61.44-61.44 61.44 28.672 61.44 61.44-26.624 61.44-61.44 61.44z" />
<glyph unicode="&#xe949;" glyph-name="Zuschauer" d="M493.568 312.832h-51.2v276.48c0 6.144-4.096 16.384-30.72 16.384h-182.272c0 0-30.72 0-30.72-16.384v-274.432h-51.2v274.432c0 47.104 43.008 67.584 81.92 67.584h182.272c59.392 0 81.92-40.96 81.92-67.584v-276.48zM876.544 589.312c0 26.624-22.528 67.584-81.92 67.584h-182.272c-38.912 0-81.92-20.48-81.92-67.584v-274.432h51.2v274.432c0 16.384 30.72 16.384 30.72 16.384h182.272c24.576 0 30.72-10.24 30.72-16.384v-274.432h51.2v274.432zM419.84 46.592v215.040h-51.2v-212.992c0-2.048-2.048-6.144-2.048-8.192h-92.16c-2.048 0-2.048 2.048-2.048 6.144v215.040h-51.2v-212.992c0-43.008 32.768-57.344 53.248-57.344h92.16c34.816-2.048 53.248 26.624 53.248 55.296zM802.816 46.592v215.040h-51.2v-212.992c0-2.048-2.048-6.144-2.048-8.192h-92.16c-2.048 0-2.048 2.048-2.048 6.144v215.040h-51.2v-212.992c0-43.008 32.768-57.344 53.248-57.344h92.16c34.816-2.048 53.248 26.624 53.248 55.296zM434.176 792.064c0 63.488-51.2 114.688-114.688 114.688s-114.688-51.2-114.688-114.688c0-63.488 51.2-114.688 114.688-114.688s114.688 51.2 114.688 114.688zM382.976 792.064c0-34.816-28.672-63.488-63.488-63.488s-63.488 28.672-63.488 63.488 28.672 63.488 63.488 63.488 63.488-28.672 63.488-63.488zM819.2 792.064c0 63.488-51.2 114.688-114.688 114.688s-114.688-51.2-114.688-114.688c0-63.488 51.2-114.688 114.688-114.688s114.688 51.2 114.688 114.688zM768 792.064c0-34.816-28.672-63.488-63.488-63.488s-63.488 28.672-63.488 63.488 28.672 63.488 63.488 63.488 63.488-28.672 63.488-63.488z" />
<glyph unicode="&#xe94a;" glyph-name="Durchschnitt" d="M991.232 890.368l-36.864 36.864-135.168-137.216c-81.92 73.728-188.416 118.784-307.2 118.784-251.904 0-458.752-204.8-458.752-458.752 0-116.736 45.056-225.28 118.784-307.2l-137.216-137.216 36.864-36.864 139.264 137.216c81.92-71.68 188.416-116.736 305.152-116.736 251.904 0 458.752 204.8 458.752 458.752 0 116.736-43.008 223.232-114.688 303.104l131.072 139.264zM104.448 450.048c0 225.28 182.272 407.552 407.552 407.552 104.448 0 198.656-38.912 270.336-104.448l-575.488-573.44c-63.488 71.68-102.4 165.888-102.4 270.336zM919.552 450.048c0-225.28-182.272-407.552-407.552-407.552-102.4 0-196.608 38.912-268.288 100.352l575.488 573.44c61.44-71.68 100.352-163.84 100.352-266.24z" />
<glyph unicode="&#xe94b;" glyph-name="Kicker" d="M171.264 327.168l-51.2 62.464-1.792 1.024v-63.232h-64.256v243.968h64.256v-141.568l1.792 1.024 10.496 13.056 37.888 44.8h82.944l-73.472-76.544 77.824-84.992h-84.48zM258.304 327.168h64.256v161.024h-64.256v-161.024zM422.656 322.56c23.040 0 40.96 8.96 40.96 8.96s0 54.016 0 54.016c-6.656-5.632-18.688-11.776-29.184-11.776-19.968 0-34.56 14.592-34.56 34.048s14.848 34.048 34.56 34.048c10.752 0 20.736-5.632 29.184-12.032v54.016c-12.8 5.888-27.392 8.96-41.472 8.96-49.664 0-87.808-36.352-87.808-86.528-0.256-50.688 38.912-83.712 88.32-83.712v0zM594.176 327.168h84.48l-77.824 84.992 73.728 76.032h-83.2l-37.888-44.8-10.496-13.056-1.792-1.024v141.568h-64.256v-243.968h64.256v63.232l1.792-1.024 51.2-61.952zM715.52 397.056h118.272c0 0 0 6.4 0 7.424 0 54.272-36.864 88.32-91.904 88.32-52.224 0-90.368-32.512-90.368-86.272 0-55.552 42.24-84.224 94.72-84.224 36.608 0 75.264 17.408 84.736 55.552h-61.952c-4.608-9.728-12.544-14.336-23.296-14.336-21.504 0.256-30.208 13.568-30.208 33.536v0zM744.704 453.888c14.080 0 25.856-9.984 27.648-23.808h-56.064c2.048 14.848 13.056 23.808 28.416 23.808v0zM945.92 434.176c9.216 0 16.128-1.792 24.32-6.4 0 0 0 63.232 0 63.232-10.24 0-43.264 3.072-60.16-27.648h-1.28l0.768 24.832h-64.768v-161.024h64.256v64c0.256 25.088 8.704 43.008 36.864 43.008v0zM326.656 537.088c0 19.968-16.384 36.352-36.352 36.352s-36.352-16.384-36.352-36.352c0-20.224 16.384-36.352 36.352-36.352s36.352 16.384 36.352 36.352v0z" />
<glyph unicode="&#xe94c;" glyph-name="KickerK" d="M563.712-0.768l-188.416 229.632-6.912 3.328v-232.96h-236.544v897.536h236.544v-520.448l6.912 3.328 38.912 47.872 139.52 164.352h305.152l-271.104-279.808 286.72-312.832h-310.784z" />
<glyph unicode="&#xe94d;" glyph-name="Kommentar01" d="M825.344-0.512l-206.848 245.76h-542.72v536.576c0 83.968 67.584 114.688 114.688 114.688h645.12c83.968 0 114.688-67.584 114.688-114.688v-536.576h-120.832l-4.096-245.76zM126.976 296.448h516.096l133.12-157.696 2.048 157.696h120.832v485.376c0 10.24-4.096 63.488-63.488 63.488h-645.12c-10.24 0-63.488-4.096-63.488-63.488v-485.376z" />
<glyph unicode="&#xe94e;" glyph-name="Kommentar02" d="M825.344-0.512l-206.848 245.76h-542.72v536.576c0 83.968 67.584 114.688 114.688 114.688h645.12c83.968 0 114.688-67.584 114.688-114.688v-536.576h-120.832l-4.096-245.76zM126.976 296.448h516.096l133.12-157.696 2.048 157.696h120.832v485.376c0 10.24-4.096 63.488-63.488 63.488h-645.12c-10.24 0-63.488-4.096-63.488-63.488v-485.376zM288.768 525.824c28.672 0 51.2 22.528 51.2 51.2s-22.528 51.2-51.2 51.2-51.2-22.528-51.2-51.2c0-28.672 22.528-51.2 51.2-51.2zM512 525.824c28.672 0 51.2 22.528 51.2 51.2s-22.528 51.2-51.2 51.2-51.2-22.528-51.2-51.2c0-28.672 22.528-51.2 51.2-51.2zM735.232 525.824c28.672 0 51.2 22.528 51.2 51.2s-22.528 51.2-51.2 51.2c-28.672 0-51.2-22.528-51.2-51.2 2.048-28.672 24.576-51.2 51.2-51.2z" />
<glyph unicode="&#xe94f;" glyph-name="Plus" d="M972.8 400.896h-413.696v-415.744h-92.16v415.744h-415.744v92.16h415.744v413.696h92.16v-413.696h415.744v-92.16z" />
<glyph unicode="&#xe950;" glyph-name="Userkommentar01" d="M256 93.696c-4.096 0-8.192 0-12.288 2.048-36.864 8.192-36.864 51.2-36.864 71.68 0 4.096 0 8.192 0 10.24 0 8.192 0 16.384 0 22.528 0 12.288 0 26.624-2.048 32.768-2.048 2.048-10.24 6.144-14.336 8.192s-6.144 4.096-10.24 6.144c-104.448 69.632-153.6 151.552-145.408 247.808 6.144 81.92 57.344 157.696 145.408 215.040 77.824 51.2 188.416 83.968 303.104 88.064 137.216 6.144 258.048-24.576 360.448-90.112 51.2-32.768 167.936-126.976 141.312-268.288-16.384-92.16-90.112-174.080-198.656-225.28-83.968-38.912-188.416-59.392-290.816-57.344-6.144 0-55.296 4.096-90.112 8.192-22.528-12.288-43.008-22.528-67.584-34.816-4.096-2.048-6.144-4.096-12.288-8.192-16.384-10.24-40.96-28.672-69.632-28.672zM516.096 751.104c-10.24 0-18.432 0-28.672 0-106.496-4.096-206.848-32.768-278.528-79.872-43.008-28.672-116.736-88.064-122.88-176.128-6.144-77.824 32.768-143.36 122.88-202.752 2.048-2.048 4.096-4.096 8.192-4.096 14.336-8.192 26.624-16.384 32.768-30.72 8.192-16.384 8.192-36.864 8.192-55.296 0-6.144 0-14.336 0-20.48 0-4.096 0-10.24 0-14.336 0-6.144 0-14.336 0-20.48 12.288 2.048 30.72 14.336 38.912 20.48 6.144 4.096 12.288 8.192 16.384 10.24 26.624 14.336 49.152 26.624 75.776 38.912l6.144 4.096h8.192c32.768-4.096 88.064-8.192 94.208-8.192 129.024-2.048 223.232 32.768 268.288 53.248 92.16 43.008 155.648 112.64 169.984 186.368 20.48 112.64-75.776 188.416-118.784 217.088-86.016 53.248-186.368 81.92-301.056 81.92z" />
<glyph unicode="&#xe951;" glyph-name="Userkommentar02" d="M337.92 476.672c0-28.672-22.528-51.2-51.2-51.2s-51.2 22.528-51.2 51.2c0 28.672 22.528 51.2 51.2 51.2s51.2-22.528 51.2-51.2zM563.2 476.672c0-28.672-22.528-51.2-51.2-51.2s-51.2 22.528-51.2 51.2c0 28.672 22.528 51.2 51.2 51.2s51.2-22.528 51.2-51.2zM786.432 476.672c0-28.672-22.528-51.2-51.2-51.2s-51.2 22.528-51.2 51.2c0 28.672 22.528 51.2 51.2 51.2s51.2-22.528 51.2-51.2zM256 93.696c-4.096 0-8.192 0-12.288 2.048-36.864 8.192-36.864 51.2-36.864 71.68 0 4.096 0 8.192 0 10.24 0 8.192 0 16.384 0 22.528 0 12.288 0 26.624-2.048 32.768-2.048 2.048-10.24 6.144-14.336 8.192s-6.144 4.096-10.24 6.144c-104.448 69.632-153.6 151.552-145.408 247.808 6.144 81.92 57.344 157.696 145.408 215.040 77.824 51.2 188.416 83.968 303.104 88.064 137.216 6.144 258.048-24.576 360.448-90.112 51.2-32.768 167.936-126.976 141.312-268.288-16.384-92.16-90.112-174.080-198.656-225.28-83.968-38.912-188.416-59.392-290.816-57.344-6.144 0-55.296 4.096-90.112 8.192-22.528-12.288-43.008-22.528-67.584-34.816-4.096-2.048-6.144-4.096-12.288-8.192-16.384-10.24-40.96-28.672-69.632-28.672zM516.096 751.104c-10.24 0-18.432 0-28.672 0-106.496-4.096-206.848-32.768-278.528-79.872-43.008-28.672-116.736-88.064-122.88-176.128-6.144-77.824 32.768-143.36 122.88-202.752 2.048-2.048 4.096-4.096 8.192-4.096 14.336-8.192 26.624-16.384 32.768-30.72 8.192-16.384 8.192-36.864 8.192-55.296 0-6.144 0-14.336 0-20.48 0-4.096 0-10.24 0-14.336 0-6.144 0-14.336 0-20.48 12.288 2.048 30.72 14.336 38.912 20.48 6.144 4.096 12.288 8.192 16.384 10.24 26.624 14.336 49.152 26.624 75.776 38.912l6.144 4.096h8.192c32.768-4.096 88.064-8.192 94.208-8.192 129.024-2.048 223.232 32.768 268.288 53.248 92.16 43.008 155.648 112.64 169.984 186.368 20.48 112.64-75.776 188.416-118.784 217.088-86.016 53.248-186.368 81.92-301.056 81.92z" />
<glyph unicode="&#xe952;" glyph-name="Vote" d="M291.072 849.408c-1.28 0-2.56-0.256-3.84-0.512-8.448-2.304-16.384-7.68-24.064-16.128s-13.312-19.456-17.152-32c-3.84-12.544-3.584-23.808 0-34.304 1.024-3.84 4.096-11.264 12.8-25.6 6.656-11.264 15.36-24.32 27.136-41.728 11.776-17.152 24.32-34.816 37.632-52.992 4.864-6.656 14.336-19.712 25.344-34.816 21.504-29.696 49.152-67.584 59.648-81.664l1.792-2.56-0.768-2.816c-13.312-53.248-26.624-107.008-39.68-160.768-13.056-54.016-24.832-103.68-35.584-148.992-11.264-48.128-19.712-86.528-26.112-117.248-6.656-32-10.24-53.76-10.752-65.024-1.536-15.104 2.048-29.184 9.984-42.24 8.192-13.312 17.664-23.040 28.16-29.184 9.984-5.888 19.2-7.68 27.648-5.632 7.168 1.792 11.264 10.24 12.544 24.832 6.912 73.984 17.92 151.040 32.512 229.376 14.848 79.36 32 158.464 51.456 235.008l3.328 12.8 7.936-10.24c22.016-28.16 43.776-56.064 65.024-83.968 20.224-26.112 40.192-51.712 60.16-75.776 13.056-15.872 42.752-49.92 64.512-74.496 9.728-11.008 17.664-19.968 22.016-25.088 13.568-16.128 24.064-27.136 30.976-33.024 13.056-12.544 27.648-18.944 44.544-20.224 17.152-1.28 32.512 0.512 45.568 5.12 12.544 4.608 21.248 11.008 25.856 19.2 2.56 4.608 4.352 11.264-5.888 20.48-14.848 12.032-32.768 29.44-54.784 53.248-21.504 23.296-82.432 90.624-108.8 121.344-27.136 31.488-54.528 64.768-81.664 99.072-27.904 35.072-56.32 72.192-84.224 109.824l-1.792 2.56 0.768 3.072c19.712 70.144 40.192 135.424 60.416 194.048 20.224 59.136 40.96 112.384 61.184 157.952 5.888 12.8 1.28 15.872-0.512 17.152-6.144 3.84-15.104 4.864-26.368 2.816-12.288-2.048-25.6-7.68-39.424-16.64-13.568-8.704-24.576-21.248-32.768-36.608-3.072-6.144-7.168-16.384-12.032-30.464-5.632-14.336-11.008-32-17.408-52.224-6.4-20.48-13.056-43.52-20.48-69.632-7.424-25.856-15.104-53.504-22.784-82.944l-3.584-13.312-7.936 11.264c-26.624 37.888-72.96 104.448-86.528 125.44-14.592 22.528-28.16 44.288-40.704 65.024-5.888 9.216-11.52 9.216-13.312 9.216zM607.488 852.992c58.368-11.776 113.408-35.584 161.536-71.168 11.264-8.448 13.824-24.576 5.376-35.84s-24.32-13.824-35.84-5.376c-44.288 32.768-95.488 54.016-149.76 63.744 6.144 16.896 12.544 33.024 18.688 48.64zM337.664 823.040c0 0 0.256 0 0.256 0.256 47.36 20.736 97.024 33.024 146.176 36.864-4.864-14.336-10.24-30.72-16.128-50.176-0.256-1.024-0.768-2.304-1.024-3.328-34.304-4.608-68.352-13.824-101.632-27.648-1.536 2.56-3.072 4.608-4.096 6.4-8.192 13.056-15.872 25.088-23.552 37.632zM684.032 32.256c-56.064-24.576-114.688-36.352-172.544-36.352-38.4 0-76.288 5.376-112.896 15.36 1.792 16.896 3.84 34.048 6.144 51.456 82.688-24.32 173.824-20.736 258.816 16.384 26.88 11.776 51.2 25.088 73.472 39.936 6.4-2.048 12.8-3.328 19.712-3.84 19.968-1.536 37.888 0.768 53.504 6.4 16.896 6.144 29.184 15.36 35.84 27.648 8.448 14.848 5.12 30.976-10.24 45.056-3.072 2.56-6.4 5.376-9.728 8.448 45.312 60.928 66.304 134.4 60.416 217.088-1.024 14.080 9.472 26.368 23.552 27.392 14.592 0.768 26.368-9.472 27.392-23.808 13.056-175.104-77.056-314.112-253.44-391.168zM282.112 61.952c-71.168 44.544-130.304 110.080-166.4 192.512-46.336 105.728-48.64 222.976-6.656 330.24 26.112 67.072 67.84 125.184 120.832 170.496 2.56-6.656 6.4-14.336 12.544-24.576 3.84-6.144 8.192-13.056 13.568-20.992-43.264-38.912-77.312-87.552-99.072-143.36-37.12-94.72-35.072-198.144 5.888-291.072 28.928-66.304 75.008-119.808 130.304-158.464-1.024-5.12-2.304-10.496-3.328-15.36-3.328-15.616-5.888-28.416-7.68-39.424z" />
<glyph unicode="&#xe953;" glyph-name="X" d="M829.696 765.696c9.984-9.984 9.984-26.112 0-36.096l-281.6-281.6 281.344-281.344c9.984-9.984 9.984-26.112 0-36.096s-26.112-9.984-36.352 0l-281.088 281.344-281.344-281.6c-9.984-9.984-26.112-9.984-36.096 0s-9.984 26.112 0 36.096l281.344 281.6-281.344 281.344c-9.984 9.984-9.984 26.112 0 36.096s26.112 9.984 36.096 0l281.344-281.344 281.344 281.6c9.984 9.984 26.112 9.984 36.352 0z" />
<glyph unicode="&#xe954;" glyph-name="Abziehen" d="M595.968 486.912h-268.288c-2.048 0-57.344 0-57.344-36.864v-460.8h-51.2v460.8c0 69.632 71.68 88.064 108.544 88.064h268.288c86.016 0 108.544-57.344 108.544-88.064v-98.304h-51.2v98.304c0 8.192-6.144 36.864-57.344 36.864zM305.152 751.104c0 86.016 69.632 155.648 155.648 155.648s155.648-69.632 155.648-155.648c0-86.016-69.632-155.648-155.648-155.648-86.016-2.048-155.648 69.632-155.648 155.648zM356.352 751.104c0-57.344 47.104-104.448 104.448-104.448s104.448 47.104 104.448 104.448c0 57.344-47.104 104.448-104.448 104.448s-104.448-47.104-104.448-104.448zM694.272 97.792h108.544v51.2h-268.288v-51.2h159.744z" />
<glyph unicode="&#xe955;" glyph-name="Archiv" d="M884.736 839.168h-745.472c-34.816 0-88.064-22.528-88.064-88.064v-88.064c0-30.72 18.432-75.776 67.584-86.016v-460.8c0-22.528 16.384-57.344 57.344-57.344h673.792c22.528 0 57.344 14.336 57.344 57.344v460.8c30.72 8.192 65.536 32.768 65.536 86.016v88.064c0 34.816-22.528 88.064-88.064 88.064zM856.064 110.080c0 0-4.096-2.048-6.144-2.048h-673.792c-4.096 0-6.144 0-6.144 6.144v458.752h688.128v-458.752c0-2.048-2.048-2.048-2.048-4.096zM921.6 660.992c0-32.768-26.624-36.864-36.864-36.864h-745.472c-32.768 0-36.864 26.624-36.864 36.864v88.064c0 32.768 26.624 36.864 36.864 36.864h747.52c32.768 0 36.864-26.624 36.864-36.864v-88.064zM337.92 361.984h350.208v155.648h-350.208v-155.648zM389.12 468.48h247.808v-53.248h-247.808v53.248z" />
<glyph unicode="&#xe956;" glyph-name="Bewegen" d="M645.12 712.192l-137.216 137.216-129.024-129.024-36.864 34.816 135.168 135.168c20.48 20.48 47.104 14.336 61.44 0l141.312-141.312-34.816-36.864zM536.576 787.968h-51.2v-264.192h51.2v264.192zM935.936 421.376c2.048 2.048 8.192 8.192 10.24 18.432 6.144 16.384 2.048 30.72-10.24 43.008l-135.168 135.168-36.864-36.864 129.024-129.024-135.168-137.216 36.864-36.864 141.312 143.36zM831.488 474.624h-264.192v-51.2h264.192v51.2zM266.24 314.88l-137.216 137.216 129.024 129.024-36.864 36.864-135.168-135.168c-20.48-20.48-14.336-47.104 0-61.44l141.312-141.312 38.912 34.816zM456.704 474.624h-264.192v-51.2h264.192v51.2zM520.192-6.656c10.24 4.096 16.384 10.24 18.432 10.24l141.312 141.312-36.864 36.864-137.216-137.216-129.024 129.024-34.816-32.768 135.168-135.168c8.192-8.192 18.432-12.288 30.72-12.288 4.096-2.048 8.192 0 12.288 0zM536.576 372.224h-51.2v-264.192h51.2v264.192z" />
<glyph unicode="&#xe957;" glyph-name="DropDown" d="M493.568 196.096c-24.576 0-49.152 10.24-67.584 30.72l-374.784 389.12 65.536 63.488 374.784-389.12c2.048-2.048 4.096-2.048 4.096-2.048s2.048 2.048 4.096 4.096l409.6 395.264 63.488-65.536-409.6-395.264c-2.048-2.048-18.432-16.384-40.96-24.576-10.24-4.096-18.432-6.144-28.672-6.144z" />
<glyph unicode="&#xe958;" glyph-name="Foto_Dick1" d="M512 597.504c-116.736 0-210.944-94.208-210.944-210.944s94.208-210.944 210.944-210.944 210.944 94.208 210.944 210.944c0 116.736-94.208 210.944-210.944 210.944zM512 228.864c-88.064 0-159.744 71.68-159.744 159.744s71.68 159.744 159.744 159.744c88.064 0 159.744-71.68 159.744-159.744s-71.68-159.744-159.744-159.744zM557.056 503.296c0-14.336-12.288-26.624-26.624-26.624-57.344 0-104.448-47.104-104.448-104.448 0-14.336-12.288-26.624-26.624-26.624s-26.624 12.288-26.624 26.624c0 86.016 69.632 155.648 155.648 155.648 16.384 0 28.672-12.288 28.672-24.576zM886.784 726.528h-169.984l-18.432 61.44c-6.144 20.48-30.72 57.344-77.824 57.344h-229.376c-16.384 0-51.2-10.24-59.392-47.104l-20.48-73.728h-174.080c-34.816 0-83.968-22.528-83.968-83.968v-591.872h917.504v591.872c0 34.816-22.528 86.016-83.968 86.016zM919.552 101.888h-815.104v538.624c0 28.672 24.576 32.768 32.768 32.768h192.512c14.336 0 26.624 12.288 26.624 26.624 0 0 0 0 0 0l22.528 86.016c2.048 6.144 8.192 8.192 10.24 8.192h229.376c20.48 0 28.672-18.432 28.672-22.528l24.576-79.872c2.048-10.24 12.288-20.48 24.576-20.48h188.416c28.672 0 32.768-24.576 32.768-32.768v-536.576z" />
<glyph unicode="&#xe959;" glyph-name="Hinzufuegen" d="M595.968 486.912h-268.288c-2.048 0-57.344 0-57.344-36.864v-460.8h-51.2v460.8c0 69.632 71.68 88.064 108.544 88.064h268.288c86.016 0 108.544-57.344 108.544-88.064v-98.304h-51.2v98.304c0 8.192-6.144 36.864-57.344 36.864zM305.152 751.104c0 86.016 69.632 155.648 155.648 155.648s155.648-69.632 155.648-155.648c0-86.016-69.632-155.648-155.648-155.648-86.016-2.048-155.648 69.632-155.648 155.648zM356.352 751.104c0-57.344 47.104-104.448 104.448-104.448s104.448 47.104 104.448 104.448c0 57.344-47.104 104.448-104.448 104.448s-104.448-47.104-104.448-104.448zM804.864 148.992h-108.544v108.544h-51.2v-108.544h-108.544v-51.2h108.544v-108.544h51.2v108.544h108.544v51.2z" />
<glyph unicode="&#xe95a;" glyph-name="Pfeil_Dick" d="M86.016 507.392l188.416 188.416 65.536-65.536-135.168-135.168h755.712v-92.16h-739.328l137.216-137.216-65.536-65.536-204.8 204.8c-26.624 26.624-34.816 69.632-2.048 102.4z" />
<glyph unicode="&#xe95b;" glyph-name="Share" d="M843.776-14.848h-663.552v493.568c0 53.248 40.96 73.728 67.584 73.728h145.408v-51.2h-145.408c-16.384 0-16.384-16.384-16.384-22.528v-442.368h561.152v442.368c0 6.144-2.048 22.528-16.384 22.528h-149.504v51.2h149.504c49.152 0 67.584-43.008 67.584-73.728v-493.568zM520.192 857.6l147.456-147.456 36.864 36.864-149.504 149.504c-12.288 12.288-30.72 16.384-47.104 10.24-10.24-4.096-16.384-10.24-18.432-12.288l-163.84-163.84 36.864-36.864 157.696 163.84zM538.624 716.288h-51.2v-536.576h51.2v536.576z" />
<glyph unicode="&#xe95c;" glyph-name="Trash" d="M342.016 146.944l-8.192 454.656h51.2l8.192-454.656h-51.2zM837.632 132.608l30.72 575.488-51.2 2.048-30.72-575.488c-4.096-88.064-88.064-92.16-96.256-92.16h-339.968c-90.112 0-98.304 83.968-100.352 92.16l-43.008 575.488-51.2-4.096 43.008-575.488c4.096-49.152 38.912-139.264 151.552-139.264h339.968c47.104 0 141.312 28.672 147.456 141.312zM538.624 148.992h-51.2v454.656h51.2v-454.656zM673.792 146.944h-51.2l8.192 454.656h51.2l-8.192-454.656zM659.456 826.88c-2.048 32.768-26.624 77.824-83.968 77.824h-124.928c-32.768 0-79.872-20.48-83.968-77.824h-212.992v-51.2h714.752v51.2h-208.896zM448.512 853.504h124.928c24.576 0 30.72-16.384 32.768-26.624h-190.464c4.096 22.528 24.576 26.624 32.768 26.624z" />
<glyph unicode="&#xe95d;" glyph-name="DropLeft" d="M296.96 361.984c-45.056 43.008-34.816 104.448-2.048 137.216l395.264 409.6 67.584-63.488-395.264-409.6c-2.048-2.048-2.048-4.096-4.096-4.096 0 0-2.048 2.048 2.048-4.096l389.12-374.784-63.488-65.536-389.12 374.784z" />
<glyph unicode="&#xe95e;" glyph-name="DropRight" d="M344.064-14.848l-63.488 65.536 389.12 374.784c6.144 4.096 2.048 4.096 2.048 4.096s-2.048 2.048-4.096 4.096l-395.264 409.6 65.536 63.488 395.264-409.6c32.768-34.816 43.008-94.208-2.048-137.216l-387.072-374.784z" />
<glyph unicode="&#xe95f;" glyph-name="DropUp" d="M522.24 689.664c22.528-8.192 38.912-20.48 40.96-24.576l409.6-395.264-63.488-67.584-409.6 395.264c-2.048 2.048-4.096 4.096-4.096 4.096s-2.048 0-4.096-2.048l-374.784-389.12-65.536 63.488 374.784 389.12c20.48 20.48 43.008 30.72 67.584 30.72 10.24 0 18.432-2.048 28.672-4.096z" />
<glyph unicode="&#xe960;" glyph-name="DropNull" d="M972.8 400.896h-921.6v92.16h921.6v-92.16z" />
<glyph unicode="&#xe961;" glyph-name="reload" d="M727.040 71.168c-67.584-40.96-141.312-61.44-215.040-61.44-137.216 0-270.336 67.584-348.16 192.512-118.784 190.464-61.44 444.416 129.024 563.2 126.976 79.872 284.672 88.064 409.6 20.48l-22.528-40.96c-108.544 59.392-247.808 51.2-360.448-18.432-169.984-106.496-221.184-329.728-116.736-499.712 106.496-169.984 329.728-221.184 499.712-114.688 137.216 86.016 194.56 210.944 163.84 352.256l45.056 10.24c36.864-163.84-28.672-305.152-184.32-403.456zM593.92 671.232l12.288-49.152 176.128 47.104c2.048 0 10.24 4.096 18.432 10.24 12.288 10.24 16.384 26.624 12.288 40.96l-45.056 165.888-49.152-12.288 40.96-157.696-165.888-45.056z" />
<glyph unicode="&#xe962;" glyph-name="spinner" d="M610.56 806.4c0-56.576-45.824-102.4-102.4-102.4s-102.4 45.824-102.4 102.4c0 56.576 45.824 102.4 102.4 102.4s102.4-45.824 102.4-102.4zM943.36 448c0-42.496-34.304-76.8-76.8-76.8s-76.8 34.304-76.8 76.8c0 42.496 34.304 76.8 76.8 76.8s76.8-34.304 76.8-76.8zM559.36 89.6c0-28.16-23.040-51.2-51.2-51.2s-51.2 23.040-51.2 51.2 23.040 51.2 51.2 51.2c28.416 0 51.2-23.040 51.2-51.2zM175.36 448c0-14.080-11.52-25.6-25.6-25.6s-25.6 11.52-25.6 25.6 11.52 25.6 25.6 25.6c14.336 0 25.6-11.52 25.6-25.6zM853.76 704c0-49.408-40.192-89.6-89.6-89.6s-89.6 40.192-89.6 89.6c0 49.408 40.192 89.6 89.6 89.6 49.664 0 89.6-40.192 89.6-89.6zM828.16 192c0-35.328-28.672-64-64-64s-64 28.672-64 64 28.672 64 64 64c35.328 0 64-28.672 64-64zM290.56 192c0-21.248-17.152-38.4-38.4-38.4s-38.4 17.152-38.4 38.4 17.152 38.4 38.4 38.4c21.248 0 38.4-17.152 38.4-38.4zM264.96 704c0-7.168-5.632-12.8-12.8-12.8s-12.8 5.632-12.8 12.8 5.632 12.8 12.8 12.8c7.168 0 12.8-5.632 12.8-12.8z" />
<glyph unicode="&#xe963;" glyph-name="CL_Pokal" d="M694.272 65.024c-12.288 10.24-26.624 14.336-45.056 18.432-14.336 4.096-34.816 8.192-38.912 16.384-2.048 4.096-2.048 12.288 2.048 22.528l4.096-2.048 75.776 116.736 2.048 2.048c10.24 20.48 247.808 481.28 88.064 638.976l-10.24 8.192c-14.336 12.288-22.528 18.432-45.056 18.432-26.624 2.048-65.536-2.048-90.112-26.624-10.24-10.24-22.528-28.672-20.48-59.392 0-6.144 4.096-59.392 36.864-86.016 16.384-12.288 22.528-20.48 22.528-26.624h-329.728c2.048 8.192 6.144 16.384 22.528 28.672 32.768 26.624 36.864 79.872 36.864 83.968 2.048 30.72-8.192 49.152-20.48 59.392-24.576 24.576-61.44 26.624-90.112 26.624-20.48 0-28.672-6.144-43.008-18.432l-8.192-6.144-2.048-2.048c-159.744-157.696 77.824-620.544 88.064-638.976l75.776-114.688c4.096-10.24 4.096-20.48 2.048-24.576-4.096-8.192-24.576-12.288-38.912-16.384-16.384-4.096-32.768-8.192-45.056-18.432-16.384-14.336-18.432-30.72-16.384-40.96 4.096-22.528 26.624-30.72 30.72-32.768l4.096 12.288v-14.336h335.872l4.096 2.048c4.096 2.048 26.624 10.24 30.72 32.768 0 12.288 0 26.624-18.432 40.96zM673.792 843.264c8.192 8.192 26.624 12.288 49.152 10.24 6.144 0 6.144 0 16.384-8.192 2.048-2.048 4.096-4.096 6.144-6.144 98.304-102.4-12.288-401.408-81.92-544.768 22.528 79.872 45.056 167.936 59.392 223.232 8.192 26.624 12.288 47.104 12.288 51.2 4.096 32.768-20.48 49.152-38.912 57.344-4.096 2.048-8.192 4.096-10.24 6.144 2.048 4.096 6.144 6.144 10.24 10.24v0c0 0 0 0 0 0 22.528 18.432 32.768 38.912 32.768 61.44 0 30.72-24.576 53.248-43.008 67.584-12.288 8.192-16.384 34.816-16.384 49.152-2.048 14.336 2.048 20.48 4.096 22.528zM276.48 841.216c2.048 2.048 4.096 4.096 6.144 6.144 8.192 6.144 8.192 6.144 16.384 8.192 22.528 2.048 43.008-2.048 49.152-10.24 2.048-2.048 6.144-8.192 4.096-20.48 0-10.24-6.144-38.912-16.384-47.104-18.432-14.336-43.008-36.864-43.008-67.584 0-22.528 10.24-43.008 32.768-61.44 2.048-2.048 6.144-6.144 10.24-10.24-4.096-2.048-8.192-4.096-10.24-6.144-16.384-10.24-43.008-24.576-38.912-57.344 2.048-14.336 38.912-153.6 71.68-274.432-67.584 139.264-180.224 438.272-81.92 540.672zM409.6 42.496c16.384 6.144 32.768 16.384 43.008 32.768s10.24 38.912 2.048 61.44v0c-45.056 163.84-110.592 409.6-116.736 438.272 2.048 2.048 8.192 6.144 12.288 8.192 6.144 4.096 14.336 8.192 22.528 14.336 10.24 8.192 18.432 20.48 18.432 32.768 0 10.24-2.048 18.432-8.192 26.624h258.048c-4.096-8.192-8.192-16.384-8.192-26.624 0-12.288 6.144-24.576 18.432-32.768 8.192-6.144 16.384-10.24 22.528-14.336 4.096-2.048 10.24-6.144 12.288-8.192-2.048-6.144-6.144-22.528-12.288-45.056-22.528-83.968-73.728-262.144-108.544-387.072-10.24-26.624-10.24-49.152 0-67.584s26.624-26.624 43.008-32.768h-198.656zM460.8 519.68c0 28.672 22.528 51.2 51.2 51.2s51.2-22.528 51.2-51.2c0-28.672-22.528-51.2-51.2-51.2-28.672 2.048-51.2 24.576-51.2 51.2zM415.744 394.752c-14.336 0-26.624 12.288-26.624 26.624s12.288 26.624 26.624 26.624h194.56c14.336 0 26.624-12.288 26.624-26.624s-12.288-26.624-26.624-26.624h-194.56zM585.728 318.976h-147.456c-14.336 0-26.624 12.288-26.624 26.624s12.288 26.624 26.624 26.624h147.456c14.336 0 26.624-12.288 26.624-26.624s-12.288-26.624-26.624-26.624z" />
<glyph unicode="&#xe964;" glyph-name="ENG_Pokal" d="M821.248 718.336v26.624h-206.848l32.768 88.064c2.048 0 4.096-2.048 6.144-2.048 14.336 0 24.576 10.24 24.576 24.576s-10.24 24.576-24.576 24.576c-14.336 0-24.576-10.24-24.576-24.576 0-4.096 0-8.192 2.048-10.24l-53.248-14.336-59.392 43.008c10.24 4.096 18.432 12.288 18.432 24.576 0 14.336-10.24 24.576-24.576 24.576s-24.576-10.24-24.576-24.576c0-10.24 8.192-20.48 16.384-22.528l-51.2-43.008-59.392 14.336c2.048 2.048 2.048 6.144 2.048 10.24 0 14.336-10.24 24.576-24.576 24.576s-24.576-10.24-24.576-24.576 10.24-24.576 24.576-24.576c4.096 0 6.144 0 10.24 2.048l30.72-88.064h-206.848v-24.576c0-16.384-4.096-391.168 225.28-602.112-8.192-12.288-20.48-30.72-32.768-45.056-20.48-22.528-26.624-43.008-18.432-63.488 12.288-28.672 49.152-32.768 63.488-32.768 47.104-4.096 75.776-4.096 77.824-4.096s30.72 0 77.824 4.096c12.288 0 51.2 4.096 63.488 32.768 8.192 18.432 2.048 38.912-18.432 63.488-14.336 14.336-24.576 32.768-32.768 45.056 81.92 75.776 210.944 251.904 210.944 598.016zM542.72 611.84c-14.336-2.048-32.768-4.096-53.248 0 8.192 20.48 4.096 38.912 2.048 47.104-2.048 12.288-6.144 24.576-10.24 34.816h65.536c-4.096-12.288-6.144-24.576-8.192-34.816 0-10.24-4.096-26.624 4.096-47.104zM325.632 357.888c-36.864 86.016-53.248 174.080-63.488 241.664h118.784c-65.536-34.816-65.536-116.736-65.536-147.456 0-12.288 2.048-49.152 10.24-94.208zM434.176 237.056c-65.536 73.728-67.584 200.704-67.584 215.040 0 49.152 6.144 94.208 53.248 108.544 10.24 2.048 18.432 6.144 26.624 10.24 24.576-8.192 47.104-12.288 67.584-12.288 30.72 0 57.344 8.192 71.68 12.288 8.192-4.096 16.384-8.192 26.624-10.24 47.104-12.288 53.248-59.392 53.248-108.544 0-14.336-2.048-141.312-67.584-215.040-65.536-75.776-59.392-112.64-49.152-129.024-16.384-4.096-40.96-6.144-67.584 0 12.288 16.384 18.432 53.248-47.104 129.024zM651.264 599.552h110.592c-10.24-94.208-28.672-174.080-55.296-237.568 8.192 43.008 8.192 77.824 8.192 90.112 2.048 30.72 2.048 112.64-63.488 147.456zM768 650.752h-176.128c2.048 16.384 6.144 34.816 12.288 43.008h165.888c-2.048-16.384-2.048-28.672-2.048-43.008zM604.16 763.392l2.048-18.432h-43.008l40.96 18.432zM430.080 763.392l34.816-18.432h-40.96l6.144 18.432zM434.176 691.712v0c-2.048 0-2.048 0-2.048 0h2.048zM425.984 691.712c4.096-8.192 10.24-24.576 14.336-43.008h-184.32c-2.048 16.384-2.048 30.72-2.048 43.008h172.032zM591.872 28.16c-45.056-4.096-73.728-4.096-73.728-4.096s-28.672 0-73.728 4.096c-8.192 0-12.288 2.048-16.384 2.048 2.048 2.048 4.096 4.096 6.144 8.192 8.192 8.192 14.336 16.384 20.48 26.624 20.48-6.144 40.96-10.24 59.392-10.24 26.624 0 49.152 6.144 65.536 10.24 6.144-8.192 14.336-18.432 20.48-26.624 2.048-4.096 4.096-6.144 6.144-8.192-2.048-2.048-8.192-2.048-14.336-2.048z" />
<glyph unicode="&#xe965;" glyph-name="EUROPA_Pokal" d="M477.184 765.44c0 18.432 14.336 32.768 32.768 32.768s32.768-14.336 32.768-32.768c0-18.432-14.336-32.768-32.768-32.768s-32.768 14.336-32.768 32.768zM632.832 445.952c-18.432-71.68-32.768-122.88-38.912-147.456 0-2.048 2.048-4.096 2.048-6.144l61.44-198.656c2.048-6.144 2.048-10.24 0-16.384l10.24-77.824-16.384-8.192c-4.096-2.048-57.344-28.672-133.12-28.672-43.008 0-92.16 8.192-143.36 32.768l-16.384 8.192 8.192 73.728c-2.048 6.144-2.048 12.288 0 18.432l53.248 169.984c4.096 10.24 6.144 18.432 8.192 26.624 0 0 0 0 0 0v0c0 0 0 0 0 0-8.192 32.768-28.672 112.64-38.912 149.504-61.44 268.288-155.648 440.32-155.648 442.368-6.144 10.24-6.144 22.528 0 30.72s16.384 14.336 28.672 12.288l129.024-18.432c2.048 0 6.144-2.048 10.24-2.048 0 0 0 0 0 0h212.992c0 0 2.048 0 4.096 0 4.096 2.048 6.144 2.048 10.24 2.048l129.024 18.432c12.288 2.048 22.528-2.048 28.672-12.288 6.144-8.192 6.144-20.48 2.048-30.72 0 2.048-94.208-169.984-155.648-438.272zM593.92 857.6h-167.936l75.776-536.576h14.336l77.824 536.576zM415.744 552.448l-43.008 311.296-73.728 10.24c26.624-55.296 75.776-167.936 116.736-321.536zM612.352 32.256l-2.048 14.336c-24.576-8.192-61.44-16.384-104.448-16.384-28.672 0-59.392 4.096-90.112 14.336v-8.192c86.016-34.816 163.84-16.384 196.608-4.096zM550.912 265.728l-75.776 2.048c-6.144-18.432-18.432-61.44-53.248-169.984 71.68-30.72 149.504-10.24 182.272 0l-53.248 167.936zM604.16 538.112c43.008 161.792 94.208 278.528 120.832 335.872l-75.776-10.24-45.056-325.632z" />
<glyph unicode="&#xe966;" glyph-name="WM_Pokal" d="M706.56 740.864c0 4.096-2.048 8.192-4.096 12.288-6.144 90.112-73.728 165.888-165.888 180.224-51.2 8.192-102.4-6.144-143.36-36.864s-67.584-75.776-75.776-126.976c-4.096-30.72 0-61.44 8.192-90.112 6.144-43.008 16.384-98.304 30.72-122.88 4.096-10.24 8.192-38.912 12.288-63.488 8.192-49.152 16.384-104.448 38.912-139.264 18.432-28.672 26.624-43.008 28.672-47.104 0-2.048 0-4.096-2.048-4.096l-4.096-10.24c2.048-6.144 0-8.192 0-8.192l2.048-2.048-69.632-192.512-16.384-51.2c-4.096-14.336 0-34.816 18.432-43.008 51.2-24.576 102.4-32.768 145.408-32.768 77.824 0 131.072 26.624 135.168 26.624 14.336 6.144 24.576 22.528 18.432 43.008l-18.432 61.44-24.576 63.488-16.384 32.768-14.336 45.056c32.768 28.672 32.768 77.824 32.768 96.256 0 14.336 0 30.72 16.384 94.208 8.192 30.72 22.528 86.016 36.864 137.216l2.048 4.096h-2.048c14.336 57.344 28.672 106.496 28.672 108.544l2.048 65.536zM370.688 759.296c6.144 36.864 24.576 71.68 55.296 94.208s67.584 32.768 104.448 26.624c77.824-10.24 131.072-81.92 120.832-159.744-4.096-28.672-16.384-53.248-34.816-75.776-4.096-4.096-4.096-8.192-6.144-12.288v0c-4.096 4.096-12.288 8.192-18.432 8.192h-18.432c-4.096 0-6.144 0-10.24-2.048l-18.432 67.584v14.336c0 4.096 0 6.144-2.048 10.24-10.24 26.624-36.864 34.816-55.296 32.768-10.24-2.048-18.432-8.192-22.528-18.432l-6.144-18.432c-2.048-4.096-2.048-8.192 0-10.24 0-6.144 6.144-43.008 22.528-63.488 6.144-8.192 10.24-26.624 12.288-38.912v-16.384c-2.048 0-4.096 2.048-6.144 2.048-53.248 8.192-94.208 43.008-112.64 90.112-2.048 18.432-4.096 34.816-4.096 43.008 0 4.096-2.048 8.192-4.096 12.288 2.048 6.144 2.048 10.24 4.096 14.336zM421.888 497.152c-6.144 34.816-8.192 61.44-18.432 77.824 0 2.048-2.048 2.048-2.048 4.096 24.576-16.384 51.2-26.624 81.92-32.768 2.048 0 2.048 0 4.096 0 4.096 0 8.192 2.048 10.24 2.048 12.288-94.208-4.096-161.792-24.576-204.8-6.144 8.192-12.288 18.432-20.48 32.768-16.384 28.672-24.576 79.872-30.72 120.832zM448.512 146.944c4.096 0 10.24 2.048 14.336 4.096 16.384 12.288 53.248 36.864 83.968 55.296l10.24-34.816 18.432-36.864 16.384-40.96c-34.816-10.24-98.304-20.48-167.936 6.144l16.384 45.056c2.048 4.096 4.096 2.048 8.192 2.048zM399.36 36.352l6.144 20.48c38.912-14.336 75.776-20.48 108.544-20.48 38.912 0 69.632 6.144 92.16 14.336l6.144-18.432c-32.768-12.288-118.784-36.864-212.992 4.096zM589.824 437.76c-18.432-69.632-18.432-88.064-18.432-106.496 0-32.768-6.144-53.248-18.432-59.392-22.528-10.24-63.488-38.912-92.16-57.344l16.384 47.104c28.672 32.768 83.968 116.736 73.728 264.192 4.096-2.048 6.144-2.048 10.24-2.048h8.192c4.096 0 8.192 2.048 12.288 4.096v-6.144c0-10.24 6.144-20.48 16.384-24.576 0 0 2.048 0 2.048 0-2.048-24.576-6.144-45.056-10.24-59.392z" />
<glyph unicode="&#xe967;" glyph-name="Abpfiff_DICK" d="M714.752 40.448h-405.504c-161.792 0-204.8 133.12-204.8 204.8v405.504c0 161.792 133.12 204.8 204.8 204.8h407.552c161.792 0 204.8-133.12 204.8-204.8v-407.552c-2.048-159.744-135.168-202.752-206.848-202.752zM309.248 804.352c-16.384 0-153.6-6.144-153.6-153.6v-407.552c0-16.384 6.144-153.6 153.6-153.6h407.552c16.384 0 153.6 6.144 153.6 153.6v407.552c0 16.384-6.144 153.6-153.6 153.6h-407.552z" />
<glyph unicode="&#xe968;" glyph-name="Abziehen_DICK1" d="M595.968 486.912h-268.288c-2.048 0-57.344 0-57.344-36.864v-460.8h-51.2v460.8c0 69.632 71.68 88.064 108.544 88.064h268.288c86.016 0 108.544-57.344 108.544-88.064v-98.304h-51.2v98.304c0 8.192-6.144 36.864-57.344 36.864zM305.152 751.104c0 86.016 69.632 155.648 155.648 155.648s155.648-69.632 155.648-155.648c0-86.016-69.632-155.648-155.648-155.648-86.016-2.048-155.648 69.632-155.648 155.648zM356.352 751.104c0-57.344 47.104-104.448 104.448-104.448s104.448 47.104 104.448 104.448c0 57.344-47.104 104.448-104.448 104.448s-104.448-47.104-104.448-104.448zM694.272 97.792h108.544v51.2h-268.288v-51.2h159.744z" />
<glyph unicode="&#xe969;" glyph-name="Ansto" d="M167.936 38.4h-51.2v815.104h51.2v-815.104zM428.032 58.88l428.032 301.056c34.816 24.576 53.248 53.248 53.248 83.968 0 51.2-47.104 86.016-53.248 90.112l-428.032 301.056c-36.864 24.576-67.584 32.768-92.16 18.432-40.96-20.48-40.96-81.92-40.96-88.064v-638.976c0-45.056 12.288-73.728 38.912-86.016 10.24-4.096 18.432-6.144 28.672-6.144 30.72 0 61.44 20.48 65.536 24.576zM399.36 794.112l428.032-301.056c0 0 30.72-22.528 30.72-47.104 0-14.336-10.24-28.672-30.72-43.008l-428.032-303.104c-12.288-8.192-34.816-18.432-43.008-12.288-4.096 2.048-10.24 14.336-10.24 40.96v636.928c0 14.336 6.144 38.912 14.336 43.008 2.048 0 2.048 0 4.096 0 6.144 2.048 18.432-2.048 34.816-14.336z" />
<glyph unicode="&#xe96a;" glyph-name="Ansto_DICK" d="M167.936 38.4h-51.2v815.104h51.2v-815.104zM428.032 58.88l428.032 301.056c34.816 24.576 53.248 53.248 53.248 83.968 0 51.2-47.104 86.016-53.248 90.112l-428.032 301.056c-36.864 24.576-67.584 32.768-92.16 18.432-40.96-20.48-40.96-81.92-40.96-88.064v-638.976c0-45.056 12.288-73.728 38.912-86.016 10.24-4.096 18.432-6.144 28.672-6.144 30.72 0 61.44 20.48 65.536 24.576zM399.36 794.112l428.032-301.056c0 0 30.72-22.528 30.72-47.104 0-14.336-10.24-28.672-30.72-43.008l-428.032-303.104c-12.288-8.192-34.816-18.432-43.008-12.288-4.096 2.048-10.24 14.336-10.24 40.96v636.928c0 14.336 6.144 38.912 14.336 43.008 2.048 0 2.048 0 4.096 0 6.144 2.048 18.432-2.048 34.816-14.336z" />
<glyph unicode="&#xe96b;" glyph-name="Archiv_DICK" d="M884.736 839.168h-745.472c-34.816 0-88.064-22.528-88.064-88.064v-88.064c0-30.72 18.432-75.776 67.584-86.016v-460.8c0-22.528 16.384-57.344 57.344-57.344h673.792c22.528 0 57.344 14.336 57.344 57.344v460.8c30.72 8.192 65.536 32.768 65.536 86.016v88.064c0 34.816-22.528 88.064-88.064 88.064zM856.064 110.080c0 0-4.096-2.048-6.144-2.048h-673.792c-4.096 0-6.144 0-6.144 6.144v458.752h688.128v-458.752c0-2.048-2.048-2.048-2.048-4.096zM921.6 660.992c0-32.768-26.624-36.864-36.864-36.864h-745.472c-32.768 0-36.864 26.624-36.864 36.864v88.064c0 32.768 26.624 36.864 36.864 36.864h747.52c32.768 0 36.864-26.624 36.864-36.864v-88.064zM337.92 361.984h350.208v155.648h-350.208v-155.648zM389.12 468.48h247.808v-53.248h-247.808v53.248z" />
<glyph unicode="&#xe96c;" glyph-name="Bewegen_DICK1" d="M485.376 826.88v-303.104h51.2v296.96l108.544-108.544 36.864 36.864-141.312 141.312c-14.336 14.336-40.96 20.48-61.44 0l-137.216-135.168 36.864-36.864 106.496 108.544zM935.936 482.816l-135.168 135.168-36.864-36.864 108.544-108.544h-305.152v-51.2h296.96l-106.496-106.496 36.864-36.864 141.312 141.312c2.048 2.048 8.192 8.192 10.24 18.432 6.144 16.384 2.048 32.768-10.24 45.056zM456.704 423.424v51.2h-305.152l108.544 108.544-36.864 36.864-135.168-135.168c-20.48-20.48-14.336-47.104 0-61.44l141.312-141.312 36.864 36.864-108.544 108.544h299.008zM536.576 75.264v296.96h-51.2v-303.104l-108.544 108.544-34.816-36.864 135.168-135.168c8.192-8.192 18.432-12.288 30.72-12.288 4.096 0 8.192 0 14.336 2.048 10.24 4.096 16.384 10.24 18.432 10.24l141.312 141.312-36.864 36.864-108.544-108.544z" />
<glyph unicode="&#xe96d;" glyph-name="Hinzufgen_DICK1" d="M595.968 486.912h-268.288c-2.048 0-57.344 0-57.344-36.864v-460.8h-51.2v460.8c0 69.632 71.68 88.064 108.544 88.064h268.288c86.016 0 108.544-57.344 108.544-88.064v-98.304h-51.2v98.304c0 8.192-6.144 36.864-57.344 36.864zM305.152 751.104c0 86.016 69.632 155.648 155.648 155.648s155.648-69.632 155.648-155.648c0-86.016-69.632-155.648-155.648-155.648-86.016-2.048-155.648 69.632-155.648 155.648zM356.352 751.104c0-57.344 47.104-104.448 104.448-104.448s104.448 47.104 104.448 104.448c0 57.344-47.104 104.448-104.448 104.448s-104.448-47.104-104.448-104.448zM804.864 148.992h-108.544v108.544h-51.2v-108.544h-108.544v-51.2h108.544v-108.544h51.2v108.544h108.544v51.2z" />
<glyph unicode="&#xe96e;" glyph-name="Pause_DICK1" d="M512-4.608c-151.552 0-299.008 75.776-382.976 212.992-131.072 210.944-67.584 489.472 143.36 622.592 141.312 88.064 313.344 96.256 452.608 22.528l-24.576-45.056c-122.88 65.536-276.48 57.344-401.408-20.48-186.368-118.784-243.712-366.592-126.976-555.008 116.736-186.368 364.544-243.712 550.912-126.976 151.552 94.208 215.040 233.472 180.224 389.12l49.152 10.24c38.912-178.176-32.768-335.872-202.752-442.368-73.728-47.104-155.648-67.584-237.568-67.584zM432.128 636.416h-51.2v-372.736h51.2v372.736zM645.12 636.416h-51.2v-372.736h51.2v372.736z" />
</font>
</defs>
</svg>
