<?xml version="1.0" encoding="UTF-8"?>
<svg width="642px" height="1007px" viewBox="0 0 642 1007" version="1.1" xmlns="http://www.w3.org/2000/svg" xmlns:xlink="http://www.w3.org/1999/xlink">
    <g id="lineup" stroke="none" stroke-width="1" fill="none" fill-rule="evenodd">
        <rect id="Rectangle-199" fill="#dedfe0" x="0" y="213.734952" width="4.25165563" height="793.265048"></rect>
        <rect id="Rectangle-200" fill="#dedfe0" x="637.748344" y="213.734952" width="4.25165563" height="793.265048"></rect>
        <rect id="Rectangle-200" fill="#dedfe0" transform="translate(321.000000, 1004.873284) scale(1, -1) translate(-321.000000, -1004.873284) " x="0" y="1002.74657" width="642" height="4.25343189"></rect>
        <rect id="Rectangle-200" fill="#dedfe0" transform="translate(321.000000, 504.031679) scale(1, -1) translate(-321.000000, -504.031679) " x="0" y="501.904963" width="642" height="4.25343189"></rect>
        <ellipse id="Oval-141" stroke="#dedfe0" stroke-width="4" cx="321.531457" cy="504.563358" rx="93.1307947" ry="93.1705385"></ellipse>
        <path d="M397.453066,842.30623 C380.166752,817.72533 351.989738,802.708553 321.247099,802.708553 C290.504461,802.708553 262.327447,817.72533 245.041133,842.30623 L397.453066,842.30623 Z" id="Oval-141" stroke="#dedfe0" stroke-width="4"></path>
        <path d="M2.12582781,988.923151 C2.15338767,988.922993 2.18096535,988.922914 2.20856065,988.922914 C10.3874437,988.922914 17.0177385,995.859312 17.0177385,1004.41579 C17.0177385,1004.44466 17.017663,1004.47351 17.0175122,1004.50235 L2.12582781,1004.50235 L2.12582781,988.923151 Z" id="Oval-143" stroke="#dedfe0" stroke-width="4"></path>
        <path d="M639.874172,988.923151 L639.874172,1004.50235 L624.982488,1004.50235 C624.982337,1004.47351 624.982262,1004.44466 624.982262,1004.41579 C624.982262,995.859312 631.612556,988.922914 639.791439,988.922914 C639.819035,988.922914 639.846612,988.922993 639.874172,988.923151 Z" id="Oval-144" stroke="#dedfe0" stroke-width="4"></path>
        <ellipse id="Oval-142" fill="#dedfe0" cx="321" cy="504.031679" rx="5.31456954" ry="5.31678986"></ellipse>
        <ellipse id="Oval-142" fill="#dedfe0" cx="321" cy="895.347413" rx="5.31456954" ry="5.31678986"></ellipse>
        <rect id="Rectangle-200" stroke="#dedfe0" stroke-width="4" transform="translate(321.531457, 923.526399) scale(1, -1) translate(-321.531457, -923.526399) " x="119.983444" y="842.052798" width="403.096026" height="162.947202"></rect>
        <rect id="Rectangle-201" stroke="#dedfe0" stroke-width="4" transform="translate(321.000000, 977.757656) scale(1, -1) translate(-321.000000, -977.757656) " x="229.463576" y="950.515312" width="183.072848" height="54.4846885"></rect>
        <rect id="Rectangle-199" fill="#dedfe0" transform="translate(2.125828, 396.632524) scale(1, -1) translate(-2.125828, -396.632524) " x="0" y="0" width="4.25165563" height="793.265048"></rect>
        <rect id="Rectangle-200" fill="#dedfe0" transform="translate(639.874172, 396.632524) scale(1, -1) translate(-639.874172, -396.632524) " x="637.748344" y="0" width="4.25165563" height="793.265048"></rect>
        <rect id="Rectangle-200" fill="#dedfe0" x="0" y="-5.68434189e-14" width="642" height="4.25343189"></rect>
        <rect id="Rectangle-200" fill="#dedfe0" x="0" y="500.841605" width="642" height="4.25343189"></rect>
        <ellipse id="Oval-141" stroke="#dedfe0" stroke-width="4" transform="translate(321.531457, 502.436642) scale(1, -1) translate(-321.531457, -502.436642) " cx="321.531457" cy="502.436642" rx="93.1307947" ry="93.1705385"></ellipse>
        <path d="M397.453066,204.291447 C380.166752,179.710546 351.989738,164.69377 321.247099,164.69377 C290.504461,164.69377 262.327447,179.710546 245.041133,204.291447 L397.453066,204.291447 Z" id="Oval-141" stroke="#dedfe0" stroke-width="4" transform="translate(321.247099, 184.492608) scale(1, -1) translate(-321.247099, -184.492608) "></path>
        <path d="M2.12582781,18.0768489 L2.12582781,2.49765477 L17.0175122,2.49765477 C17.017663,2.52648699 17.0177385,2.55533786 17.0177385,2.58420717 C17.0177385,11.1406876 10.3874437,18.0770855 2.20856065,18.0770855 C2.18096535,18.0770855 2.15338767,18.0770066 2.12582781,18.0768489 Z" id="Oval-143" stroke="#dedfe0" stroke-width="4"></path>
        <path d="M639.874172,18.0768489 C639.846612,18.0770066 639.819035,18.0770855 639.791439,18.0770855 C631.612556,18.0770855 624.982262,11.1406876 624.982262,2.58420717 C624.982262,2.55533786 624.982337,2.52648699 624.982488,2.49765477 L639.874172,2.49765477 L639.874172,18.0768489 Z" id="Oval-144" stroke="#dedfe0" stroke-width="4"></path>
        <ellipse id="Oval-142" fill="#dedfe0" transform="translate(321.000000, 502.968321) scale(1, -1) translate(-321.000000, -502.968321) " cx="321" cy="502.968321" rx="5.31456954" ry="5.31678986"></ellipse>
        <ellipse id="Oval-142" fill="#dedfe0" transform="translate(321.000000, 111.652587) scale(1, -1) translate(-321.000000, -111.652587) " cx="321" cy="111.652587" rx="5.31456954" ry="5.31678986"></ellipse>
        <rect id="Rectangle-200" stroke="#dedfe0" stroke-width="4" x="119.983444" y="2" width="403.096026" height="162.947202"></rect>
        <rect id="Rectangle-201" stroke="#dedfe0" stroke-width="4" x="229.463576" y="2" width="183.072848" height="54.4846885"></rect>
        <rect id="Rectangle-231" fill="#dedfe0" x="285.923841" y="1002.74657" width="71.2152318" height="4.25343189"></rect>
        <rect id="Rectangle-232" fill="#dedfe0" x="285.923841" y="0" width="71.2152318" height="4.25343189"></rect>
    </g>
</svg>
